<svg width="80" height="81" viewBox="0 0 80 81" fill="none" xmlns="http://www.w3.org/2000/svg">
<path fill-rule="evenodd" clip-rule="evenodd" d="M23.8359 8.30244H16.7C14.9594 8.30244 13.5062 9.55089 13.1891 11.1993H6.16406C5.74062 11.1993 5.39845 11.5415 5.39845 11.9649V17.5149C5.39845 17.9384 5.74062 18.2806 6.16406 18.2806H7.76875V28.0259C4.52813 30.3899 2.66094 34.1306 2.5 39.5728C2.5 39.5806 2.5 39.5884 2.5 39.5962V50.2134C2.47969 53.1993 4.90156 55.8259 7.76875 56.6978V63.8337C7.76875 65.5743 9.01719 67.0275 10.6656 67.3447V74.4587C10.6656 74.8806 11.0078 75.2228 11.4312 75.2228H16.9812C17.4047 75.2228 17.7469 74.8806 17.7469 74.4587V72.765H27.4922C29.8562 76.0056 33.5953 77.8712 39.036 78.0337H39.0437H39.0547H39.0578C39.0594 78.0337 39.0625 78.0337 39.0641 78.0337H57.3281C59.3016 78.0337 60.9031 76.4322 60.9031 74.4587C60.9031 73.6978 60.6656 72.9931 60.2609 72.4134H63.3C64.9156 72.4134 66.2813 71.3399 66.725 69.8681H73.925C74.3469 69.8681 74.6891 69.5259 74.6891 69.1025V63.5525C74.6891 63.129 74.3469 62.7868 73.925 62.7868H72.2313V53.0415C75.4719 50.6775 77.3375 46.9384 77.5 41.4977V41.49V41.479V41.4759C77.5 41.4743 77.5 41.4712 77.5 41.4696V23.2056C77.5 21.2321 75.8985 19.6306 73.925 19.6306C73.1641 19.6306 72.4594 19.8681 71.8797 20.2728V17.2337C71.8797 15.6181 70.8063 14.2524 69.3344 13.8087V6.69775C69.3344 6.27431 68.9922 5.93214 68.5688 5.93214H63.0188C62.5953 5.93214 62.2531 6.27431 62.2531 6.69775V8.30244H52.5078C50.1438 5.06182 46.4031 3.19463 40.9609 3.0337C40.9531 3.0337 40.9453 3.0337 40.9375 3.0337H30.3203C27.3344 3.01338 24.7078 5.43525 23.8359 8.30244ZM65.7594 65.2618C66.8875 65.2618 67.8047 64.3462 67.8047 63.2165C67.8047 62.0884 66.8875 61.1728 65.7594 61.1728H47.8438C47.4219 61.1728 47.0781 60.829 47.0781 60.4071C47.0781 59.9853 47.4219 59.6415 47.8438 59.6415H63.3C64.4282 59.6415 65.3453 58.7259 65.3453 57.5962C65.3453 56.4681 64.4282 55.5525 63.3 55.5525H55.5859C55.5766 55.5525 55.5672 55.5525 55.5578 55.5525H45.0344C44.6109 55.5525 44.2688 55.2087 44.2688 54.7868C44.2688 54.3634 44.6109 54.0212 45.0344 54.0212H54.5485C53.7563 51.965 51.8672 50.2649 49.6875 50.2821C49.6859 50.2821 49.6844 50.2821 49.6813 50.2821C49.6813 50.2821 39.0735 50.2821 39.0719 50.2821C36.1047 50.3727 33.6937 51.0087 31.7812 52.1525V57.8618C31.7812 59.8352 30.1797 61.4368 28.2063 61.4368C27.4469 61.4368 26.7406 61.1993 26.1609 60.7946V63.8337C26.1609 65.8072 24.5594 67.4103 22.5859 67.4103C21.8125 67.4103 21.0969 67.1634 20.5125 66.7462C20.3219 68.2462 19.2016 69.4571 17.7469 69.7821V71.2337H26.5313C26.0563 70.354 25.6594 69.3962 25.3344 68.365C25.2078 67.9618 25.4313 67.5321 25.8344 67.4056C26.2375 67.279 26.6672 67.5024 26.7953 67.9056C28.4594 73.2024 32.3156 76.3009 39.0735 76.5024H57.3281C58.4578 76.5024 59.3734 75.5868 59.3734 74.4587C59.3734 73.329 58.4578 72.4134 57.3281 72.4134H47.4922C47.0703 72.4134 46.7266 72.0696 46.7266 71.6477C46.7266 71.2259 47.0703 70.8821 47.4922 70.8821H63.3C64.4282 70.8821 65.3453 69.9665 65.3453 68.8368C65.3453 67.7087 64.4282 66.7931 63.3 66.7931H48.5469C48.1234 66.7931 47.7813 66.4493 47.7813 66.0274C47.7813 65.6056 48.1234 65.2618 48.5469 65.2618H65.7594ZM13.4187 66.7462C13.0547 67.0056 12.6422 67.1978 12.1953 67.3072V73.6931H16.2172V69.7899C14.7469 69.4759 13.6094 68.2571 13.4187 66.7462ZM10.7516 18.2806H9.30001V27.065C10.1797 26.59 11.1375 26.1931 12.1687 25.8681C12.5719 25.7415 13.0016 25.965 13.1281 26.3681C13.2563 26.7712 13.0313 27.2009 12.6281 27.329C7.33283 28.9931 4.23439 32.8493 4.03126 39.6071V50.2149C4.03126 50.2181 4.03126 50.2196 4.03126 50.2212C4.01407 52.4009 5.71406 54.29 7.76875 55.0822V45.5681C7.76875 45.1446 8.11252 44.8025 8.5344 44.8025C8.95784 44.8025 9.30001 45.1446 9.30001 45.5681V56.0915C9.30001 56.1009 9.30001 56.1103 9.30001 56.1196V63.8337C9.30001 64.9618 10.2156 65.879 11.3453 65.879C12.4735 65.879 13.3906 64.9618 13.3906 63.8337V48.3774C13.3906 47.9556 13.7328 47.6118 14.1547 47.6118C14.5781 47.6118 14.9203 47.9556 14.9203 48.3774V66.2931C14.9203 67.4212 15.8375 68.3384 16.9656 68.3384C18.0938 68.3384 19.0109 67.4212 19.0109 66.2931V49.0806C19.0109 48.6571 19.3531 48.315 19.775 48.315C20.1985 48.315 20.5406 48.6571 20.5406 49.0806V63.8337C20.5406 64.9618 21.4578 65.879 22.5859 65.879C23.7141 65.879 24.6312 64.9618 24.6312 63.8337V48.0259C24.6312 47.604 24.9734 47.2603 25.3953 47.2603C25.8188 47.2603 26.1609 47.604 26.1609 48.0259V57.8618C26.1609 58.9915 27.0781 59.9071 28.2063 59.9071C29.3344 59.9071 30.2516 58.9915 30.2516 57.8618V39.6071C30.1625 36.64 29.5266 34.2274 28.3812 32.3149H22.6719C20.6985 32.3149 19.0969 30.7134 19.0969 28.7399C19.0969 27.9806 19.3344 27.2743 19.7391 26.6946H16.7C14.7265 26.6946 13.1234 25.0931 13.1234 23.1196C13.1234 22.3462 13.3703 21.6306 13.7875 21.0462C12.2875 20.8556 11.0766 19.7353 10.7516 18.2806ZM69.1625 64.3165C68.7422 65.6149 67.6016 66.5884 66.2125 66.7649C66.5391 67.2212 66.7594 67.7571 66.8406 68.3384H73.1594V64.3165H69.1625ZM64.7281 14.7743C64.7281 13.6462 63.8125 12.729 62.6828 12.729C61.5547 12.729 60.6391 13.6462 60.6391 14.7743V32.69C60.6391 33.1118 60.2953 33.4556 59.8734 33.4556C59.4516 33.4556 59.1078 33.1118 59.1078 32.69V17.2337C59.1078 16.1056 58.1922 15.1884 57.0625 15.1884C55.9344 15.1884 55.0188 16.1056 55.0188 17.2337V24.9478C55.0188 24.9571 55.0188 24.9665 55.0188 24.9759V35.4993C55.0188 35.9228 54.675 36.2649 54.2531 36.2649C53.8297 36.2649 53.4875 35.9228 53.4875 35.4993V25.9852C51.4313 26.7774 49.7312 28.6665 49.7484 30.8462C49.7484 30.8478 49.7484 30.8493 49.7484 30.8525C49.7484 30.8525 49.7484 41.4603 49.7484 41.4618C49.8453 44.6602 50.5765 47.2134 51.8953 49.1899C53.9047 50.0118 55.5172 51.8931 56.1641 54.0212H63.3C65.2735 54.0212 66.8766 55.6228 66.8766 57.5962C66.8766 58.3696 66.6297 59.0853 66.2125 59.6696C67.8313 59.8759 69.1141 61.1649 69.3094 62.7868H70.7V54.0024C69.8203 54.4774 68.8625 54.8743 67.8313 55.1993C67.4281 55.3259 66.9984 55.1024 66.8719 54.6993C66.7453 54.2962 66.9687 53.8665 67.3719 53.7384C72.6687 52.0743 75.7672 48.2181 75.9688 41.4602V23.2056C75.9688 22.0775 75.0531 21.1603 73.925 21.1603C72.7953 21.1603 71.8797 22.0775 71.8797 23.2056V33.0415C71.8797 33.4634 71.5359 33.8071 71.1141 33.8071C70.6922 33.8071 70.3484 33.4634 70.3484 33.0415V17.2337C70.3484 16.1056 69.4328 15.1884 68.3031 15.1884C67.175 15.1884 66.2594 16.1056 66.2594 17.2337V31.9868C66.2594 32.4103 65.9156 32.7524 65.4937 32.7524C65.0719 32.7524 64.7281 32.4103 64.7281 31.9868V14.7743ZM48.2203 30.6603C46.2469 31.6571 43.8453 32.229 40.9641 32.3149H40.9563H40.9453H40.9422C40.9406 32.3149 40.9375 32.3149 40.9359 32.3149H30.1266C31.1235 34.2884 31.6953 36.6884 31.7812 39.5696V39.5774V39.5884V39.5915C31.7812 39.5931 31.7812 39.5962 31.7812 39.5978V50.4071C33.7547 49.4103 36.1578 48.8368 39.0391 48.7525C39.0469 48.7525 39.0547 48.7525 39.0625 48.7525H49.6797C49.7453 48.7509 49.8094 48.7525 49.8734 48.754C48.8766 46.7806 48.3031 44.3774 48.2188 41.4946C48.2188 41.4868 48.2188 41.479 48.2188 41.4712V30.854C48.2172 30.79 48.2188 30.7243 48.2203 30.6603ZM40 36.4415C38.4531 34.8946 36.1063 35.0696 34.8531 36.1212C33.4563 37.2915 33.2891 39.6306 34.6844 41.9728C35.5563 43.5274 37.7656 45.1149 39.6266 46.1556C39.8594 46.2853 40.1406 46.2853 40.3734 46.1556C42.2359 45.1149 44.4469 43.5259 45.3203 41.9649C46.7094 39.6274 46.5437 37.2899 45.1469 36.1212C43.8937 35.0696 41.5484 34.8946 40 36.4415ZM39.3422 38.0743C39.4813 38.3056 39.7313 38.4477 40 38.4477C40.2688 38.4477 40.5187 38.3056 40.6578 38.0743C41.5359 36.6009 43.2844 36.5571 44.1641 37.2931C44.5781 37.6415 44.7625 38.1728 44.7625 38.7806C44.7625 39.5165 44.5 40.3524 43.9985 41.1931C43.9938 41.1993 43.9906 41.2056 43.9859 41.2134C43.2844 42.4728 41.5438 43.7087 40 44.6071C38.4563 43.7087 36.7141 42.4728 36.0141 41.2134C36.0094 41.2056 36.0062 41.1993 36.0016 41.1931C35.5 40.3524 35.2375 39.5165 35.2375 38.7806C35.2375 38.1728 35.4219 37.6415 35.836 37.2931C36.7156 36.5571 38.4641 36.6009 39.3422 38.0743ZM53.4688 9.8337C53.9437 10.7134 54.3406 11.6712 54.6656 12.7024C54.7922 13.1056 54.5687 13.5353 54.1656 13.6618C53.7625 13.7899 53.3328 13.565 53.2047 13.1618C51.5406 7.86652 47.6844 4.76808 40.9266 4.56495H30.3188C30.3156 4.56495 30.3141 4.56495 30.3125 4.56495C28.1328 4.54777 26.2437 6.24775 25.4515 8.30244H34.9656C35.3891 8.30244 35.7312 8.64621 35.7312 9.06809C35.7312 9.49153 35.3891 9.8337 34.9656 9.8337H24.4422C24.4328 9.8337 24.4234 9.8337 24.4141 9.8337H16.7C15.5719 9.8337 14.6547 10.7493 14.6547 11.879C14.6547 13.0072 15.5719 13.9243 16.7 13.9243H32.1563C32.5781 13.9243 32.9219 14.2665 32.9219 14.6884C32.9219 15.1118 32.5781 15.454 32.1563 15.454H14.2406C13.1125 15.454 12.1953 16.3712 12.1953 17.4993C12.1953 18.6275 13.1125 19.5446 14.2406 19.5446H31.4531C31.8766 19.5446 32.2187 19.8868 32.2187 20.3087C32.2187 20.7321 31.8766 21.0743 31.4531 21.0743H16.7C15.5719 21.0743 14.6547 21.9915 14.6547 23.1196C14.6547 24.2478 15.5719 25.1649 16.7 25.1649H32.5078C32.9297 25.1649 33.2734 25.5071 33.2734 25.929C33.2734 26.3524 32.9297 26.6946 32.5078 26.6946H22.6719C21.5438 26.6946 20.6266 27.6118 20.6266 28.7399C20.6266 29.8681 21.5438 30.7853 22.6719 30.7853H40.9266C44.0781 30.69 46.6016 29.979 48.5656 28.6978C48.5938 28.679 48.6219 28.6634 48.6516 28.6493C49.4703 26.6352 51.3563 25.0181 53.4875 24.3696V17.2337C53.4875 15.2602 55.0891 13.6571 57.0625 13.6571C57.8359 13.6571 58.5516 13.904 59.1359 14.3212C59.3422 12.7024 60.6312 11.4196 62.2531 11.2243V9.8337H53.4688ZM13.2266 12.729H6.92971V16.7509H10.7438C11.0578 15.2806 12.2766 14.1431 13.7875 13.9524C13.5281 13.5884 13.3359 13.1759 13.2266 12.729ZM63.7828 11.3712C65.0812 11.7915 66.0547 12.9321 66.2312 14.3212C66.6875 13.9946 67.2234 13.7743 67.8047 13.6931V7.4634H63.7828V11.3712Z" fill="black"/>
</svg>
