<svg width="81" height="81" viewBox="0 0 81 81" fill="none" xmlns="http://www.w3.org/2000/svg">
<path d="M78.4941 36.6697L71.6605 34.4105C71.3789 32.9561 70.9965 31.5241 70.5181 30.1337L75.3165 24.7529L74.8477 23.7881C74.0365 22.1177 73.0957 20.4937 72.0541 18.9609L71.4525 18.0761L64.4269 19.5385C63.4509 18.4169 62.3965 17.3641 61.2781 16.3881L62.7389 9.3625L61.8541 8.7609C60.3117 7.7129 58.6877 6.7737 57.0237 5.9673L56.0605 5.5017L50.6829 10.3001C49.2893 9.8217 47.8573 9.4393 46.4061 9.1577L44.1469 2.3241L43.0797 2.2457C41.2269 2.1113 39.3389 2.1113 37.4861 2.2457L36.4189 2.3225L34.1597 9.1577C32.7101 9.4393 31.2765 9.8217 29.8829 10.3001L24.5021 5.5017L23.5373 5.9705C21.8669 6.7817 20.2429 7.7225 18.7101 8.7641L17.8269 9.3657L19.2893 16.3913C18.1677 17.3673 17.1149 18.4217 16.1389 19.5401L9.11493 18.0777L8.51333 18.9625C7.46533 20.5049 6.52613 22.1289 5.71973 23.7929L5.25413 24.7561L10.0493 30.1337C9.57093 31.5273 9.18853 32.9593 8.90693 34.4105L2.07333 36.6697L1.99493 37.7369C1.92773 38.6633 1.88293 39.5913 1.88293 40.5337C1.88293 41.4761 1.92773 42.4041 1.99493 43.3305L2.07173 44.3977L8.90533 46.6569C9.18693 48.1113 9.56933 49.5433 10.0477 50.9337L5.24933 56.3145L5.71813 57.2793C6.52934 58.9497 7.47013 60.5737 8.51173 62.1065L9.11333 62.9913L16.1389 61.5289C17.1149 62.6505 18.1693 63.7033 19.2877 64.6793L17.8269 71.7049L18.7117 72.3065C20.2541 73.3545 21.8781 74.2937 23.5421 75.1001L24.5053 75.5657L29.8845 70.7705C31.2781 71.2489 32.7101 71.6313 34.1613 71.9129L36.4205 78.7465L37.4877 78.8233C38.4125 78.8889 39.3405 78.9337 40.2829 78.9337C41.2253 78.9337 42.1533 78.8889 43.0797 78.8217L44.1469 78.7449L46.4061 71.9113C47.8605 71.6297 49.2925 71.2473 50.6829 70.7689L56.0637 75.5673L57.0285 75.0985C58.6989 74.2873 60.3229 73.3465 61.8557 72.3049L62.7405 71.7033L61.2781 64.6777C62.3997 63.7017 63.4525 62.6473 64.4285 61.5289L71.4541 62.9897L72.0557 62.1049C73.1037 60.5625 74.0429 58.9385 74.8493 57.2745L75.3149 56.3113L70.5165 50.9337C70.9949 49.5401 71.3773 48.1065 71.6589 46.6569L78.4925 44.3977L78.5693 43.3305C78.6381 42.4041 78.6829 41.4761 78.6829 40.5337C78.6829 39.5913 78.6381 38.6633 78.5709 37.7369L78.4941 36.6697ZM75.4445 42.0345L68.8285 44.2217L68.6717 45.1801C68.3661 47.0729 67.8669 48.9369 67.1917 50.7209L66.8493 51.6265L71.4861 56.8297C71.0269 57.7097 70.5245 58.5753 69.9885 59.4169L63.1933 58.0025L62.5789 58.7545C61.3629 60.2393 59.9917 61.6105 58.5005 62.8313L57.7485 63.4457L59.1645 70.2409C58.3245 70.7753 57.4605 71.2761 56.5773 71.7401L51.3741 67.1001L50.4669 67.4457C48.6909 68.1193 46.8269 68.6153 44.9277 68.9241L43.9693 69.0809L41.7821 75.6969C40.7885 75.7465 39.7725 75.7465 38.7789 75.6969L36.5917 69.0809L35.6333 68.9241C33.7389 68.6185 31.8749 68.1193 30.0941 67.4441L29.1869 67.1001L23.9837 71.7385C23.1037 71.2793 22.2381 70.7769 21.3965 70.2409L22.8109 63.4457L22.0589 62.8313C20.5741 61.6153 19.2029 60.2441 17.9821 58.7529L17.3677 58.0009L10.5725 59.4169C10.0381 58.5769 9.53733 57.7129 9.07333 56.8297L13.7133 51.6265L13.3677 50.7193C12.6941 48.9433 12.1981 47.0793 11.8893 45.1801L11.7325 44.2217L5.11653 42.0345C5.09733 41.5385 5.08293 41.0377 5.08293 40.5337C5.08293 40.0297 5.09733 39.5289 5.12133 39.0329L11.7373 36.8457L11.8941 35.8873C12.1997 33.9929 12.6989 32.1289 13.3741 30.3481L13.7181 29.4409L9.07973 24.2377C9.53893 23.3577 10.0413 22.4921 10.5773 21.6505L17.3725 23.0649L17.9869 22.3129C19.2029 20.8281 20.5741 19.4569 22.0653 18.2361L22.8173 17.6217L21.4013 10.8265C22.2413 10.2921 23.1053 9.7913 23.9885 9.3273L29.1917 13.9657L30.0973 13.6233C31.8813 12.9481 33.7453 12.4505 35.6381 12.1433L36.5965 11.9865L38.7837 5.3705C39.7773 5.3209 40.7933 5.3209 41.7869 5.3705L43.9741 11.9865L44.9325 12.1433C46.8269 12.4489 48.6909 12.9481 50.4717 13.6233L51.3789 13.9673L56.5821 9.3289C57.4621 9.7881 58.3277 10.2905 59.1693 10.8265L57.7549 17.6217L58.5069 18.2361C59.9917 19.4521 61.3629 20.8233 62.5837 22.3145L63.1981 23.0665L69.9933 21.6505C70.5277 22.4905 71.0285 23.3545 71.4925 24.2377L66.8525 29.4409L67.1981 30.3481C67.8717 32.1241 68.3677 33.9881 68.6765 35.8873L68.8333 36.8457L75.4493 39.0329C75.4685 39.5289 75.4829 40.0297 75.4829 40.5337C75.4829 41.0377 75.4685 41.5385 75.4445 42.0345Z" fill="black"/>
<path d="M39.8174 18.1401C31.515 18.3753 24.5502 25.3209 24.2926 33.6233C24.139 38.4569 26.1518 43.0473 29.8094 46.2137C32.3982 48.4537 33.883 51.5914 33.883 54.9338V56.5337V62.9338H38.683V66.1338H41.883V62.9338H46.683V56.4249V54.8249C46.683 51.625 48.1982 48.4585 50.8414 46.1402C54.3006 43.1033 56.283 38.7289 56.283 34.1337C56.283 29.7721 54.5614 25.6985 51.4334 22.6585C48.307 19.6201 44.1694 18.0617 39.8174 18.1401ZM43.483 59.7337H37.083V56.5337H43.483V59.7337ZM48.731 43.7337C45.819 46.2905 43.9902 49.6954 43.5742 53.3338H41.883V37.9961L46.2142 33.6649L43.9518 31.4025L40.283 35.0713L36.6142 31.4025L34.3518 33.6649L38.683 37.9961V53.3338H37.003C36.611 49.7162 34.8014 46.3018 31.9022 43.7945C28.9758 41.2601 27.3678 37.5897 27.4894 33.7225C27.6958 27.0825 33.2654 21.5273 39.907 21.3401C43.4078 21.2201 46.7006 22.5209 49.203 24.9529C51.7054 27.3849 53.083 30.6441 53.083 34.1337C53.083 37.8073 51.4974 41.3065 48.731 43.7337Z" fill="black"/>
</svg>
