<svg width="81" height="64" viewBox="0 0 81 64" fill="none" xmlns="http://www.w3.org/2000/svg">
<g clip-path="url(#clip0_22_45)">
<path d="M25.85 28.8C24.525 27.0375 22.0125 26.675 20.25 28C18.4875 29.325 18.125 31.8375 19.45 33.6L24.2125 39.95C24.8125 40.75 24.725 41.8625 24.025 42.5625L22.425 44.1625C21.5875 45 20.225 44.9375 19.475 44.025L8.25 30.55V12C8.25 9.7875 6.4625 8 4.25 8C2.0375 8 0.25 9.7875 0.25 12V39.3C0.25 40.6625 0.7125 41.9875 1.5625 43.05L14.575 59.8375C15.2 60.65 15.625 61.575 15.875 62.55C16.1 63.4125 16.8875 64 17.7875 64H34.25C35.35 64 36.25 63.1 36.25 62V48C36.25 44.5375 35.125 41.175 33.05 38.4L25.85 28.8ZM76.25 8C74.0375 8 72.25 9.7875 72.25 12V30.55L61.025 44.025C60.275 44.925 58.9 44.9875 58.075 44.1625L56.475 42.5625C55.775 41.8625 55.6875 40.75 56.2875 39.95L61.05 33.6C62.375 31.8375 62.0125 29.325 60.25 28C58.4875 26.675 55.975 27.0375 54.65 28.8L47.45 38.4C45.375 41.175 44.25 44.5375 44.25 48V62C44.25 63.1 45.15 64 46.25 64H62.7125C63.6 64 64.4 63.4125 64.625 62.55C64.875 61.575 65.3 60.65 65.925 59.8375L78.9375 43.05C79.7875 41.9875 80.25 40.6625 80.25 39.3V12C80.25 9.7875 78.4625 8 76.25 8Z" fill="black"/>
</g>
<defs>
<clipPath id="clip0_22_45">
<rect width="80" height="64" fill="white" transform="translate(0.25)"/>
</clipPath>
</defs>
</svg>
