<svg width="80" height="81" viewBox="0 0 80 81" fill="none" xmlns="http://www.w3.org/2000/svg">
<path d="M17.5 29.9087H15V31.1587H17.5V29.9087Z" fill="black"/>
<path d="M17.5 34.9087H15V36.1587H17.5V34.9087Z" fill="black"/>
<path d="M76.8564 30.3821L76.2868 28.1039C75.813 26.2089 74.3522 24.6986 72.4742 24.1621L66.875 22.5623V19.6702L67.9359 19.1397C68.8046 18.7053 69.4121 17.9098 69.6026 16.9572L70.6094 11.9231L71.8564 6.93527C71.8973 6.77169 71.8703 6.59866 71.7816 6.45522C71.6929 6.31179 71.5501 6.21017 71.3856 6.1737L61.7125 4.02419C60.545 3.76449 59.304 3.99642 58.3092 4.65987C56.6588 5.76018 55.9442 7.8427 56.5713 9.72442L56.8917 10.6853L57.9242 16.8808C58.0881 17.8636 58.7179 18.7164 59.609 19.1621L60.625 19.6701V22.5623L55.0258 24.1621C53.1477 24.6986 51.687 26.2089 51.2132 28.1039L50.6436 30.3822C50.5974 30.5673 50.6383 30.7635 50.7545 30.9148L54.375 35.6214V76.7837C54.375 77.1289 54.6548 77.4087 55 77.4087H72.5C72.8451 77.4087 73.125 77.1289 73.125 76.7837V35.6213L76.7454 30.9148C76.8617 30.7635 76.9026 30.5673 76.8564 30.3821ZM59.1571 16.6753L58.2507 11.237L69.252 12.3371L68.3771 16.712C68.2626 17.2836 67.8981 17.7609 67.3768 18.0215L63.75 19.835L60.1681 18.044C59.6333 17.7766 59.2555 17.265 59.1571 16.6753ZM63.4704 21.0928C63.5585 21.1368 63.6542 21.1587 63.75 21.1587C63.8458 21.1587 63.9415 21.1368 64.0295 21.0928L65.625 20.2951V22.9015C65.2231 23.7824 64.4022 24.1014 63.75 24.1014C63.0977 24.1014 62.2768 23.7824 61.875 22.9015V20.2951L63.4704 21.0928ZM62.9771 37.8775L60.8316 40.8276C60.6801 41.036 60.5592 41.2571 60.4624 41.4848L55.9421 35.6084L59.4264 32.9952L62.9771 37.8775ZM68.0736 32.9952L71.5578 35.6084L65.1019 44.0012C64.7449 44.4653 64.205 44.7533 63.6206 44.7913C63.0357 44.8282 62.4635 44.6135 62.0494 44.1994C61.3368 43.4868 61.2498 42.3779 61.8426 41.5628L68.0736 32.9952ZM68.125 71.1587C66.6327 71.1587 65.2919 71.8167 64.375 72.8569V51.7837H63.125V72.8569C62.2081 71.8167 60.8673 71.1587 59.375 71.1587C57.8827 71.1587 56.5419 71.8167 55.625 72.8569V47.4087H71.875V72.8569C70.9581 71.8167 69.6173 71.1587 68.125 71.1587ZM71.875 46.1587H55.625V37.2464L60.2358 43.2405C60.3361 43.9166 60.6473 44.5649 61.1656 45.0832C61.7836 45.7013 62.6202 46.0455 63.4886 46.0455C63.5594 46.0455 63.6305 46.0432 63.7016 46.0385C64.6449 45.9773 65.5163 45.5125 66.0928 44.7632L71.875 37.2464V46.1587ZM72.3201 34.6175L68.809 31.9841L70.5055 29.6513L69.4945 28.9162L63.75 36.8148L58.0055 28.9162L56.9945 29.6513L58.691 31.9841L55.1799 34.6175L51.9296 30.3921L52.426 28.407C52.7916 26.9443 53.9194 25.7782 55.3691 25.3639L60.9255 23.7764C61.5207 24.7596 62.5588 25.3514 63.75 25.3514C64.9412 25.3514 65.9793 24.7596 66.5745 23.7764L72.1309 25.3639C73.5806 25.7782 74.7084 26.9443 75.074 28.407L75.5704 30.3921L72.3201 34.6175Z" fill="black"/>
<path d="M50.0267 28.731C49.7322 27.2581 48.976 25.955 47.8977 24.9812L48.1289 24.3942C49.7609 20.3143 49.9948 15.7404 48.7875 11.5154L48.1242 9.19366C48.076 6.13336 45.5716 3.65869 42.5 3.65869H38.2969C36.0437 3.65869 34.0143 4.99689 33.1268 7.06781C31.4712 10.9306 31.078 15.1409 31.9899 19.2439L33.0992 24.2333C31.4908 25.2249 30.3516 26.8384 29.9733 28.731L29.3872 31.6612C29.3554 31.8191 29.3861 31.9833 29.4726 32.1192L31.875 35.8943V42.9171C30.2512 47.0546 30.1294 51.6482 31.5356 55.8672L31.907 56.9813C31.9922 57.2366 32.231 57.4087 32.5 57.4087H34.4249L35.6235 71.7907C34.867 72.3616 34.375 73.2651 34.375 74.2837V76.7837C34.375 77.1288 34.6548 77.4087 35 77.4087H45C45.3451 77.4087 45.625 77.1288 45.625 76.7837V74.2837C45.625 73.2651 45.133 72.3616 44.3765 71.7907L45.5751 57.4087H47.5C47.769 57.4087 48.0078 57.2366 48.0929 56.9813L48.4643 55.8672C49.8705 51.6482 49.7487 47.0546 48.125 42.9171V35.8943L50.5273 32.1192C50.6138 31.9833 50.6445 31.8191 50.6128 31.6612L50.0267 28.731ZM35.9788 13.4918L35.6991 12.093L41.2773 8.74613L45.5575 10.8863L45.2945 12.4656C44.7741 15.5866 42.8222 18.308 40.0467 19.806C37.9312 18.2871 36.4923 16.0583 35.9788 13.4918ZM38.125 19.8346C38.5955 20.2782 39.1043 20.6877 39.6533 21.0537C39.7578 21.1234 39.8787 21.1587 40 21.1587C40.0955 21.1587 40.1912 21.1369 40.2795 21.0928L40.3238 21.0707C40.8687 20.7981 41.3865 20.4834 41.875 20.1329V22.9464L40 29.5086L38.125 22.9464L38.125 19.8346ZM40.7432 41.5254C41.234 42.2614 41.0344 43.2597 40.2983 43.7504C39.9364 43.9918 39.503 44.0754 39.0768 43.9852C38.6513 43.8955 38.2881 43.6439 38.0546 43.2768L34.0811 37.0326L37.2243 36.2469L40.7432 41.5254ZM42.7756 36.2468L45.9189 37.0326L42.2289 42.8312C42.3329 42.1305 42.1792 41.4256 41.7833 40.832L40.751 39.2837L42.7756 36.2468ZM36.0205 42.4087H33.125V37.8586L36.0205 42.4087ZM35.6793 57.4087H39.375V71.7896C38.852 71.3954 38.2039 71.1587 37.5 71.1587C37.2703 71.1587 37.047 71.1853 36.8313 71.2325L35.6793 57.4087ZM43.1686 71.2325C42.9529 71.1853 42.7296 71.1587 42.5 71.1587C41.7961 71.1587 41.148 71.3954 40.625 71.7896V57.4087H44.3207L43.1686 71.2325ZM46.875 42.4087H43.9795L46.875 37.8586V42.4087ZM46.6263 35.921L43.5119 35.1424L45.52 32.1304L44.48 31.437L39.9999 38.1569L35.52 31.437L34.48 32.1304L36.488 35.1424L33.3737 35.921L30.6621 31.6599L31.1989 28.9761C31.573 27.1052 32.854 25.5651 34.6255 24.8567L37.0893 23.8711L39.3991 31.9554C39.4757 32.2238 39.7209 32.4087 40 32.4087C40.2791 32.4087 40.5243 32.2238 40.6009 31.9554L42.9107 23.8711L45.3744 24.8567C47.146 25.5651 48.4269 27.1052 48.8011 28.9761L49.3379 31.6601L46.6263 35.921Z" fill="black"/>
<path d="M28.5576 28.4365C28.2278 27.1182 27.2854 26.0116 26.0365 25.4765L19.375 22.6216V19.9133C21.6048 18.7142 22.8766 16.2509 22.5114 13.6938L21.9095 9.48042C23.4255 8.2337 24.375 6.34706 24.375 4.28369C24.375 3.93854 24.0951 3.65869 23.75 3.65869H16.25C13.1483 3.65869 10.625 6.18204 10.625 9.28369V11.7222L10.2786 13.4539C9.76702 16.0121 10.9437 18.5707 13.125 19.8736V22.6216L6.46361 25.4765C5.21452 26.0116 4.27214 27.1182 3.9424 28.4367L3.1436 31.6322C3.09996 31.8066 3.13368 31.9915 3.23607 32.1394L5.62796 35.5943L6.87777 46.8435L9.37712 76.8356L9.38018 76.8353C9.40688 77.1559 9.67253 77.4087 9.99999 77.4087H22.5C22.8274 77.4087 23.0931 77.1559 23.1198 76.8353L23.1229 76.8356L25.6222 46.8435L26.872 35.5943L29.2639 32.1394C29.3663 31.9915 29.4 31.8066 29.3564 31.6322L28.5576 28.4365ZM16.25 20.7397C16.8819 20.7397 17.5136 20.6388 18.125 20.4404V22.7749L16.25 24.6497L14.375 22.7749V20.4404C14.9863 20.6388 15.6179 20.7397 16.25 20.7397ZM11.5042 13.699L11.7811 12.3148L18.9696 10.877C19.6045 10.7501 20.2033 10.5336 20.7559 10.2446L21.2739 13.8705C21.5907 16.0874 20.3596 18.2166 18.28 19.0484L18.0475 19.1416C16.8883 19.6052 15.6117 19.6052 14.4525 19.1416C12.2868 18.2752 11.0469 15.9863 11.5042 13.699ZM15.4772 40.8463L14.5431 42.1307C13.7493 43.222 13.7315 44.646 14.4317 45.7389C14.1664 45.5959 13.9313 45.392 13.7518 45.1328L11.3364 41.6439L14.5158 39.5244L15.4772 40.8463ZM17.9842 39.5244L21.1635 41.6438L18.7482 45.1327C18.4167 45.6117 17.8938 45.9162 17.3138 45.9686C16.7337 46.0203 16.1648 45.8146 15.7529 45.4028C15.0671 44.717 14.9835 43.6501 15.554 42.8658L17.9842 39.5244ZM19.375 71.1587C18.4153 71.1587 17.539 71.5215 16.875 72.1166V50.5337H15.625V72.1166C14.961 71.5215 14.0847 71.1587 13.125 71.1587C11.9818 71.1587 10.9572 71.6735 10.2688 72.4828L8.17927 47.4087H24.3207L22.2312 72.4828C21.5428 71.6735 20.5182 71.1587 19.375 71.1587ZM12.724 45.8444C12.8008 45.9553 12.8838 46.0601 12.9722 46.1587H8.05937L7.12607 37.7583L12.724 45.8444ZM24.4406 46.1587H19.5269C19.6155 46.0596 19.6992 45.9551 19.776 45.8442L25.3739 37.7583L24.4406 46.1587ZM21.8751 40.616L18.72 38.5127L24.2555 30.9013L23.2445 30.1661L16.2501 39.7836L9.25551 30.1661L8.24446 30.9013L13.78 38.5126L10.6248 40.616L4.42504 31.6607L5.15517 28.7399C5.39061 27.7981 6.06383 27.0077 6.95601 26.6255L9.23239 25.6499L12.0581 28.4756C12.1788 28.5964 12.3389 28.6587 12.5001 28.6587C12.6202 28.6587 12.7409 28.6242 12.8467 28.5537L16.25 26.2848L19.6533 28.5537C19.7591 28.6242 19.8797 28.6587 19.9998 28.6587C20.1611 28.6587 20.3212 28.5964 20.4419 28.4756L23.2676 25.6498L25.5441 26.6255C26.4361 27.0077 27.1094 27.7981 27.3448 28.7397L28.0749 31.6607L21.8751 40.616Z" fill="black"/>
</svg>
