<svg width="81" height="81" viewBox="0 0 81 81" fill="none" xmlns="http://www.w3.org/2000/svg">
<g clip-path="url(#clip0_22_35)">
<path d="M41.1563 1.26807C41.7344 1.39307 42.2969 1.51807 42.875 1.64307C45.625 2.18994 48.3906 2.72119 51.1406 3.26807C52.0937 3.45557 53.0469 3.64307 54 3.83057C54.2187 3.87744 54.4375 3.93994 54.6406 4.01807C55.4375 4.34619 55.9063 4.95557 56 5.79932C56.0625 6.39307 56.0625 7.00244 56.0625 7.59619C56.0625 10.4712 56.0781 13.3462 56.0625 16.2212C56.0312 20.8618 54.4531 24.8931 51.2969 28.2993C49.4219 30.3306 47.1719 31.7837 44.5938 32.7524C43.5469 33.1431 42.4844 33.5181 41.4375 33.9243C40.9062 34.1274 40.3594 34.1431 39.8281 33.9399C38.5781 33.4712 37.3125 33.0337 36.0781 32.5337C30.625 30.3462 26.625 25.5024 25.4844 19.7368C25.25 18.5337 25.125 17.3149 25.125 16.0806C25.125 12.8149 25.125 9.54932 25.125 6.29932C25.125 6.03369 25.1562 5.75244 25.2187 5.48682C25.4531 4.62744 26.0312 4.08057 26.8906 3.89307C28.0156 3.64307 29.1406 3.42432 30.2656 3.20557C33.1406 2.64307 36.0312 2.08057 38.9062 1.51807C39.3281 1.43994 39.7656 1.34619 40.1875 1.25244C40.5 1.26807 40.8281 1.26807 41.1563 1.26807ZM26.0625 11.6899C26.0625 13.1431 26.0625 14.5962 26.0625 16.0337C26.0625 17.1587 26.1562 18.2837 26.3594 19.3931C27.3906 24.9087 31.1875 29.5649 36.4062 31.6431C37.5937 32.1274 38.8125 32.5337 40.0156 33.0024C40.4062 33.1587 40.7812 33.1431 41.1719 33.0024C42.1719 32.6118 43.1875 32.2524 44.1875 31.8774C46.5 31.0181 48.5469 29.7368 50.2812 27.9556C53.4219 24.7212 55.0469 20.8618 55.0937 16.3462C55.125 13.3774 55.0937 10.3931 55.0937 7.42432C55.0937 7.01807 55.0937 6.59619 55.0781 6.18994C55.0469 5.39307 54.7031 4.97119 53.9375 4.78369C53.6094 4.70557 53.2813 4.64307 52.9531 4.58057C49.1406 3.83057 45.3281 3.08057 41.5312 2.33057C41.0469 2.23682 40.5625 2.17432 40.0781 2.26807C39.6719 2.34619 39.2656 2.42432 38.8594 2.50244C36.1094 3.03369 33.3438 3.58057 30.5938 4.11182C29.4531 4.33057 28.3125 4.54932 27.1719 4.79932C26.4687 4.93994 26.0781 5.42432 26.0469 6.14307C26.0469 6.23682 26.0469 6.34619 26.0469 6.43994C26.0625 8.18994 26.0625 9.93994 26.0625 11.6899Z" fill="white"/>
<path d="M29.8281 13.3149C29.8281 12.0962 29.8281 10.893 29.8281 9.67428C29.8281 9.50241 29.8281 9.31491 29.8594 9.15866C30 8.47116 30.4062 8.01803 31.1094 7.86178C31.9531 7.67428 32.7969 7.51803 33.6406 7.36178C35.7812 6.93991 37.9375 6.53366 40.0781 6.11178C40.5469 6.01803 41 6.04928 41.4531 6.14303C44.2969 6.70553 47.1406 7.25241 49.9844 7.81491C50.6562 7.95553 51.1562 8.31491 51.3281 9.00241C51.3594 9.14303 51.375 9.29928 51.375 9.43991C51.375 11.8149 51.4062 14.1899 51.3594 16.5649C51.2812 21.7055 48.1094 26.2993 43.3438 28.2212C42.625 28.518 41.8906 28.7524 41.1719 29.018C40.7656 29.1743 40.375 29.1587 39.9687 29.0024C39.3594 28.768 38.75 28.5649 38.1406 28.3305C35.375 27.2212 33.1406 25.4712 31.625 22.8774C30.4531 20.8462 29.8281 18.6587 29.8281 16.2993C29.8281 15.3149 29.8281 14.3149 29.8281 13.3149ZM50.4062 13.4712C50.4219 13.4712 50.4375 13.4712 50.4531 13.4712C50.4531 12.1899 50.4531 10.9243 50.4531 9.64303C50.4531 9.00241 50.2969 8.83053 49.6719 8.70553C49.6406 8.70553 49.5937 8.68991 49.5625 8.68991C46.8281 8.15866 44.0937 7.62741 41.3594 7.08053C40.9062 6.98678 40.4687 6.98678 40.0312 7.08053C37.25 7.62741 34.4687 8.15866 31.6875 8.70553C30.8906 8.86178 30.7812 8.98678 30.7812 9.79928C30.7812 11.9555 30.7812 14.1274 30.7812 16.2837C30.7812 18.2524 31.25 20.1274 32.1562 21.8774C33.5312 24.5493 35.7031 26.3149 38.4375 27.4399C39.0469 27.6899 39.6875 27.893 40.2969 28.1274C40.5156 28.2055 40.7031 28.2055 40.9062 28.1274C41.5625 27.8774 42.2188 27.6587 42.875 27.4087C47.2969 25.6587 50.2187 21.5649 50.4062 16.8149C50.4375 15.7055 50.4062 14.5805 50.4062 13.4712Z" fill="white"/>
<mask id="path-3-outside-1_22_35" maskUnits="userSpaceOnUse" x="0.234375" y="27.6897" width="81" height="53" fill="black">
<rect fill="white" x="0.234375" y="27.6897" width="81" height="53"/>
<path d="M79.875 47.3306C79.8594 42.8618 79.8438 38.3774 79.8281 33.9087C79.8281 33.2056 79.8281 32.5024 79.7813 31.8149C79.7344 30.9243 78.9375 30.4556 78.125 30.7993C77.9531 30.8774 77.7969 30.9712 77.625 31.0649C73.7656 33.3149 69.8906 35.5649 66.0313 37.8149C63.6719 39.1899 61.3281 40.5493 58.9844 41.9399C58.5 42.2212 58.0156 42.2837 57.4844 42.0806C56.6719 41.7837 55.8594 41.5181 55.0469 41.2524C51.9531 40.2212 48.8281 40.0806 45.6719 40.8931C45.1719 41.0181 44.6719 41.1899 44.1563 41.3462C44.0781 41.2681 44 41.2056 43.9062 41.1274C40.1875 37.7524 35.8281 36.4712 30.8906 37.1743C28.4531 37.5181 26.0312 37.9556 23.6094 38.3618C23.3281 38.4087 23.0781 38.3774 22.8125 38.2524C16.3594 35.2056 9.89063 32.1743 3.42188 29.1431C3.15625 29.0181 2.875 28.8774 2.60938 28.7681C2.125 28.5806 1.6875 28.7368 1.40625 29.1587C1.35938 29.2368 1.29688 29.3149 1.23438 29.3931C1.23438 36.4243 1.23438 43.4399 1.23438 50.4712C1.26563 50.5181 1.3125 50.5493 1.32813 50.5962C1.5 51.1743 1.9375 51.4712 2.45313 51.7212C6.54688 53.7056 10.625 55.7056 14.7031 57.6899C15.3125 57.9868 15.8281 58.3931 16.2344 58.9243C17.5469 60.6118 19.1094 62.0181 20.875 63.1899C21.1875 63.4087 21.5469 63.5649 21.8906 63.7524C21.9687 63.7993 22.0156 63.8618 22.0938 63.9087C22.6094 64.2837 23.125 64.6587 23.7656 64.7837C24.4375 66.3931 25.6875 67.1274 27.3906 67.1431C27.3438 67.4243 27.2813 67.6431 27.2656 67.8774C27.25 68.1118 27.2344 68.3618 27.2656 68.5806C27.5313 70.7524 29.4375 72.1274 31.5938 71.7212C31.6719 71.7056 31.75 71.7212 31.8438 71.7212C31.8281 71.9399 31.8125 72.1431 31.7969 72.3306C31.75 73.4712 32.1875 74.4087 33.0625 75.1118C33.9687 75.8462 35.0156 76.0337 36.1406 75.8462C36.2344 75.8306 36.3281 75.8306 36.4375 75.8149C36.4219 75.9087 36.4219 75.9712 36.4219 76.0337C36.2656 77.9399 37.4375 79.4868 39.3125 79.8618C39.5 79.8931 39.6719 79.9556 39.8437 80.0024C39.9687 80.0024 40.0938 80.0024 40.2188 80.0024C40.2813 79.9868 40.3281 79.9556 40.3906 79.9399C41.25 79.8306 41.9844 79.4712 42.6406 78.8931C42.8906 78.6743 43.1406 78.4556 43.4063 78.2212C44.625 79.3774 46.0312 79.7212 47.5625 78.9556C49.0781 78.2056 49.7813 76.9243 49.6563 75.1899C50.9219 75.4868 52.0156 75.2368 52.9687 74.4087C53.9219 73.5649 54.375 72.5181 54.2656 71.2056C55.5313 71.5024 56.6562 71.2368 57.6094 70.4087C58.5937 69.5649 59 68.4868 58.8906 67.2056C61.2813 67.8149 63.6563 65.8618 63.5625 63.4243C63.6094 63.3931 63.6563 63.3618 63.7188 63.3462C64.3906 63.0337 65.0156 62.6431 65.6094 62.1899C67.0313 61.1118 68.2031 59.8149 69.1719 58.3306C69.3437 58.0649 69.5625 57.8931 69.8437 57.7524C72.8125 56.2993 75.7969 54.8462 78.7656 53.4087C79.2969 53.1587 79.7187 52.8462 79.9062 52.2681C79.9062 50.7368 79.9062 49.2212 79.9062 47.6899C79.9063 47.5806 79.875 47.4556 79.875 47.3306ZM23.875 62.7524C23.8125 63.0649 23.7813 63.3931 23.7344 63.7524C23.5469 63.6899 23.3906 63.5962 23.2187 63.4868L23.2031 63.5337L21.8594 62.7056L21.8438 62.6743C21.2969 62.2837 20.7813 61.9243 20.2813 61.5493C19.0938 60.6431 18.0156 59.5962 17.0938 58.4087C16.5625 57.7368 15.9063 57.1899 15.1406 56.8149C11.0469 54.8306 6.95313 52.8306 2.85938 50.8306C2.76563 50.7837 2.6875 50.7368 2.59375 50.6899C2.375 50.5806 2.26563 50.3931 2.26563 50.1431C2.26563 50.0337 2.26563 49.9243 2.26563 49.7993C2.26563 43.3931 2.26563 37.0024 2.26563 30.5962C2.26563 30.2837 2.26563 29.9712 2.26563 29.6118C2.4375 29.6743 2.5625 29.7368 2.70313 29.7993C5.29688 31.0181 7.90625 32.2368 10.5 33.4556C14.5 35.3306 18.5 37.2056 22.5 39.0962C22.875 39.2681 23.2344 39.3462 23.6562 39.2837C25.875 38.9087 28.0937 38.5493 30.3125 38.1743C31.7344 37.9399 33.1562 37.7993 34.6094 37.9243C38.0469 38.2524 41.0312 39.5493 43.5 41.9712C45.6094 44.0337 47.6563 46.1587 49.7344 48.2524C49.9531 48.4712 50.1563 48.6743 50.3594 48.8931C51.5156 50.1431 51.0937 51.6274 50.4687 52.4712C49.8437 53.2837 48.3281 53.8774 47 53.1274C46.8281 53.0337 46.6563 52.9087 46.5 52.7993C44.9688 51.7212 43.4375 50.6274 41.9062 49.5493C41.7031 49.3931 41.4688 49.3149 41.2188 49.3149C40.1875 49.2837 39.1719 49.2368 38.1406 49.1899C38 49.1899 37.8594 49.2368 37.75 49.3306L36.3437 50.6274L36.1875 50.7368C32.5 54.0806 28.7969 57.4243 25.1094 60.7681C24.5 61.3306 24.0469 61.9556 23.875 62.7524ZM46.9844 78.2212C45.9844 78.6274 44.9375 78.4243 44.1719 77.5806C43.4219 76.7681 42.7031 75.9087 41.9844 75.0649C40.5937 73.3931 41.9844 71.1274 43.5937 70.8618C44.1719 70.7681 44.7187 70.7837 45.2344 71.0493C45.3906 71.1274 45.5469 71.2681 45.6562 71.3931C46.5156 72.3774 47.3437 73.3931 48.2344 74.3618C48.5156 74.6743 48.6563 74.9868 48.7188 75.3774C48.7344 75.4868 48.7344 75.5962 48.7344 75.6431C48.75 76.7993 48.0625 77.7993 46.9844 78.2212ZM52.5781 73.5181C51.9844 74.1118 51.3906 74.3774 50.5625 74.3931C49.9531 74.3774 49.2969 74.1431 48.7969 73.5806C48.0938 72.7681 47.375 71.9712 46.6875 71.1431C45.9063 70.2056 45.8281 69.0493 46.4688 68.0962C47 67.2993 48.0781 66.4868 49.4844 66.8931C49.9375 67.0181 50.3281 67.2524 50.6406 67.6118C51.3438 68.4243 52.0625 69.2212 52.75 70.0493C53.6406 71.1274 53.5781 72.5181 52.5781 73.5181ZM57.6875 68.8931C57.2187 69.7212 56.5 70.2368 55.5469 70.3774C54.9844 70.4556 54.4531 70.3149 53.9688 70.0181C53.8906 69.9712 53.8437 69.9087 53.7812 69.8462C52.8437 68.7681 51.9219 67.6899 50.9844 66.6118C50.9063 66.5337 50.8594 66.4243 50.8125 66.3306C50.7656 66.1899 50.7188 66.0493 50.6875 65.8931C50.6562 65.7524 50.6562 65.5962 50.6562 65.4399C50.6719 64.3618 51.4219 63.3462 52.5 62.9243C53.4844 62.5493 54.5625 62.8149 55.2969 63.6274C56.0312 64.4556 56.75 65.2837 57.4531 66.1118C58.0937 66.8931 58.1875 68.0337 57.6875 68.8931ZM58.875 66.1587C58.6563 66.0493 58.4844 65.9087 58.3281 65.7212C57.4531 64.7056 56.5625 63.6899 55.6562 62.6743C55.4531 62.4556 55.3906 62.2056 55.3281 61.9399C55.2031 61.2681 55.3125 60.6431 55.7031 60.0806C56.2812 59.2368 57.3438 58.5024 58.6875 58.8618C59.1563 58.9868 59.5625 59.2212 59.875 59.5962C60.5937 60.4243 61.3125 61.2524 62.0312 62.0806C62.4219 62.5337 62.6094 63.0649 62.5938 63.6587C62.6719 65.3462 60.6563 66.9868 58.875 66.1587ZM78.5 52.5024C75.5 53.9556 72.5 55.4243 69.5 56.8774C69.0312 57.0962 68.6719 57.3931 68.3906 57.8306C67.4375 59.2837 66.2813 60.5493 64.8594 61.5806C64.3906 61.9243 63.9219 62.2212 63.3594 62.4712C63.1094 61.7993 62.625 61.3306 62.1875 60.8149C61.6719 60.2212 61.1563 59.6274 60.6406 59.0337C59.4844 57.7056 57.5937 57.4399 56.125 58.3931C54.9375 59.1587 54.2969 60.2524 54.3438 61.6899C54.3438 61.7524 54.3438 61.8149 54.3438 61.8774C54.3438 61.8931 54.3281 61.8931 54.2969 61.9556C53.0937 61.6899 51.9687 61.9243 51.0156 62.7524C50.0469 63.5806 49.625 64.6431 49.7031 65.9556C48.4219 65.6587 47.3125 65.9243 46.3594 66.7681C45.3906 67.6118 44.9844 68.6743 45.0938 69.9243C44.6563 69.9087 44.25 69.8774 43.8438 69.8931C41.4688 70.0493 40.2812 72.3149 40.4687 73.8774C40.5469 74.5649 40.8281 75.1743 41.2656 75.7056C41.6563 76.1743 42.0625 76.6431 42.4531 77.1118C42.5625 77.2368 42.6563 77.3618 42.7969 77.5024C42.0625 78.2056 41.375 78.9399 40.2813 79.0024C39.2344 79.0649 38.3438 78.7212 37.7813 77.8149C37.2188 76.9087 37.2344 75.9712 37.7656 75.0493C37.8125 74.9556 37.875 74.8774 37.9219 74.7993C37.9375 74.7837 37.9375 74.7524 37.9531 74.6899C37.8125 74.5337 37.6563 74.3618 37.4844 74.1743C37.3594 74.2681 37.2656 74.3462 37.1563 74.4243C36.2344 75.1274 35 75.2056 34.0156 74.6274C33 74.0337 32.5469 72.9399 32.875 71.7993C32.9844 71.4087 33.1719 71.0337 33.3438 70.6118C33.2188 70.4712 33.0469 70.2993 32.875 70.1118C32.7344 70.2056 32.6094 70.2993 32.5 70.3774C31.7187 70.9087 30.875 71.0181 30 70.7212C28.3437 70.1431 27.7187 68.1743 28.75 66.7212C29.0156 66.3618 29.3281 66.0337 29.6094 65.6743C29.7187 65.5337 29.8281 65.4087 29.9375 65.2368C29.75 65.1587 29.6562 65.2681 29.5312 65.3149C29.0937 65.5337 28.6719 65.7681 28.2187 65.9556C27.25 66.3618 26.3281 66.2212 25.5 65.5806C25.1875 65.3462 24.9531 65.0337 24.7969 64.6743C24.6719 64.4243 24.5938 64.1743 24.6875 63.8774C24.7188 63.7837 24.7188 63.6743 24.7188 63.5806C24.7188 62.7681 25.0625 62.1118 25.6563 61.5806C27.1719 60.2212 28.6719 58.8462 30.1875 57.4868C32.5625 55.3462 34.9375 53.1899 37.2969 51.0337C37.5469 50.7993 37.75 50.5024 38 50.2056C38.25 50.2056 38.5781 50.1899 38.8906 50.2056C39.5469 50.2212 40.2187 50.2681 40.875 50.2837C41.1094 50.2837 41.2969 50.3618 41.5 50.5024C43.0313 51.5962 44.5469 52.6743 46.0937 53.7524C47.3437 54.6274 48.6562 54.7056 50.0312 54.0493C51.9375 53.1431 52.7969 50.2524 51.0781 48.3618C50.5469 47.7837 49.9844 47.2212 49.4375 46.6743C47.9844 45.1899 46.5156 43.7212 45.0625 42.2524C45.0312 42.2212 45.0156 42.1899 44.9844 42.1274C45.0781 42.0806 45.1719 42.0493 45.25 42.0181C48.4688 41.0337 51.6719 41.1274 54.8594 42.2056C55.6406 42.4712 56.4219 42.7212 57.2031 43.0024C58 43.2837 58.7344 43.2212 59.4688 42.7837C61.2813 41.7056 63.1094 40.6587 64.9375 39.5962C69.3438 37.0337 73.75 34.4712 78.1406 31.9087C78.2656 31.8306 78.4062 31.7524 78.5469 31.7056C78.7187 31.6431 78.8125 31.7056 78.8594 31.8774C78.8906 32.0024 78.8906 32.1274 78.8906 32.2524C78.9063 33.7837 78.9063 35.2993 78.9219 36.8306C78.9531 41.2681 78.9844 45.7056 79.0156 50.1431C79.0156 50.6743 79.0156 51.1899 79.0469 51.7212C79.0469 52.0806 78.875 52.3149 78.5 52.5024Z"/>
</mask>
<path d="M79.875 47.3306C79.8594 42.8618 79.8438 38.3774 79.8281 33.9087C79.8281 33.2056 79.8281 32.5024 79.7813 31.8149C79.7344 30.9243 78.9375 30.4556 78.125 30.7993C77.9531 30.8774 77.7969 30.9712 77.625 31.0649C73.7656 33.3149 69.8906 35.5649 66.0313 37.8149C63.6719 39.1899 61.3281 40.5493 58.9844 41.9399C58.5 42.2212 58.0156 42.2837 57.4844 42.0806C56.6719 41.7837 55.8594 41.5181 55.0469 41.2524C51.9531 40.2212 48.8281 40.0806 45.6719 40.8931C45.1719 41.0181 44.6719 41.1899 44.1563 41.3462C44.0781 41.2681 44 41.2056 43.9062 41.1274C40.1875 37.7524 35.8281 36.4712 30.8906 37.1743C28.4531 37.5181 26.0312 37.9556 23.6094 38.3618C23.3281 38.4087 23.0781 38.3774 22.8125 38.2524C16.3594 35.2056 9.89063 32.1743 3.42188 29.1431C3.15625 29.0181 2.875 28.8774 2.60938 28.7681C2.125 28.5806 1.6875 28.7368 1.40625 29.1587C1.35938 29.2368 1.29688 29.3149 1.23438 29.3931C1.23438 36.4243 1.23438 43.4399 1.23438 50.4712C1.26563 50.5181 1.3125 50.5493 1.32813 50.5962C1.5 51.1743 1.9375 51.4712 2.45313 51.7212C6.54688 53.7056 10.625 55.7056 14.7031 57.6899C15.3125 57.9868 15.8281 58.3931 16.2344 58.9243C17.5469 60.6118 19.1094 62.0181 20.875 63.1899C21.1875 63.4087 21.5469 63.5649 21.8906 63.7524C21.9687 63.7993 22.0156 63.8618 22.0938 63.9087C22.6094 64.2837 23.125 64.6587 23.7656 64.7837C24.4375 66.3931 25.6875 67.1274 27.3906 67.1431C27.3438 67.4243 27.2813 67.6431 27.2656 67.8774C27.25 68.1118 27.2344 68.3618 27.2656 68.5806C27.5313 70.7524 29.4375 72.1274 31.5938 71.7212C31.6719 71.7056 31.75 71.7212 31.8438 71.7212C31.8281 71.9399 31.8125 72.1431 31.7969 72.3306C31.75 73.4712 32.1875 74.4087 33.0625 75.1118C33.9687 75.8462 35.0156 76.0337 36.1406 75.8462C36.2344 75.8306 36.3281 75.8306 36.4375 75.8149C36.4219 75.9087 36.4219 75.9712 36.4219 76.0337C36.2656 77.9399 37.4375 79.4868 39.3125 79.8618C39.5 79.8931 39.6719 79.9556 39.8437 80.0024C39.9687 80.0024 40.0938 80.0024 40.2188 80.0024C40.2813 79.9868 40.3281 79.9556 40.3906 79.9399C41.25 79.8306 41.9844 79.4712 42.6406 78.8931C42.8906 78.6743 43.1406 78.4556 43.4063 78.2212C44.625 79.3774 46.0312 79.7212 47.5625 78.9556C49.0781 78.2056 49.7813 76.9243 49.6563 75.1899C50.9219 75.4868 52.0156 75.2368 52.9687 74.4087C53.9219 73.5649 54.375 72.5181 54.2656 71.2056C55.5313 71.5024 56.6562 71.2368 57.6094 70.4087C58.5937 69.5649 59 68.4868 58.8906 67.2056C61.2813 67.8149 63.6563 65.8618 63.5625 63.4243C63.6094 63.3931 63.6563 63.3618 63.7188 63.3462C64.3906 63.0337 65.0156 62.6431 65.6094 62.1899C67.0313 61.1118 68.2031 59.8149 69.1719 58.3306C69.3437 58.0649 69.5625 57.8931 69.8437 57.7524C72.8125 56.2993 75.7969 54.8462 78.7656 53.4087C79.2969 53.1587 79.7187 52.8462 79.9062 52.2681C79.9062 50.7368 79.9062 49.2212 79.9062 47.6899C79.9063 47.5806 79.875 47.4556 79.875 47.3306ZM23.875 62.7524C23.8125 63.0649 23.7813 63.3931 23.7344 63.7524C23.5469 63.6899 23.3906 63.5962 23.2187 63.4868L23.2031 63.5337L21.8594 62.7056L21.8438 62.6743C21.2969 62.2837 20.7813 61.9243 20.2813 61.5493C19.0938 60.6431 18.0156 59.5962 17.0938 58.4087C16.5625 57.7368 15.9063 57.1899 15.1406 56.8149C11.0469 54.8306 6.95313 52.8306 2.85938 50.8306C2.76563 50.7837 2.6875 50.7368 2.59375 50.6899C2.375 50.5806 2.26563 50.3931 2.26563 50.1431C2.26563 50.0337 2.26563 49.9243 2.26563 49.7993C2.26563 43.3931 2.26563 37.0024 2.26563 30.5962C2.26563 30.2837 2.26563 29.9712 2.26563 29.6118C2.4375 29.6743 2.5625 29.7368 2.70313 29.7993C5.29688 31.0181 7.90625 32.2368 10.5 33.4556C14.5 35.3306 18.5 37.2056 22.5 39.0962C22.875 39.2681 23.2344 39.3462 23.6562 39.2837C25.875 38.9087 28.0937 38.5493 30.3125 38.1743C31.7344 37.9399 33.1562 37.7993 34.6094 37.9243C38.0469 38.2524 41.0312 39.5493 43.5 41.9712C45.6094 44.0337 47.6563 46.1587 49.7344 48.2524C49.9531 48.4712 50.1563 48.6743 50.3594 48.8931C51.5156 50.1431 51.0937 51.6274 50.4687 52.4712C49.8437 53.2837 48.3281 53.8774 47 53.1274C46.8281 53.0337 46.6563 52.9087 46.5 52.7993C44.9688 51.7212 43.4375 50.6274 41.9062 49.5493C41.7031 49.3931 41.4688 49.3149 41.2188 49.3149C40.1875 49.2837 39.1719 49.2368 38.1406 49.1899C38 49.1899 37.8594 49.2368 37.75 49.3306L36.3437 50.6274L36.1875 50.7368C32.5 54.0806 28.7969 57.4243 25.1094 60.7681C24.5 61.3306 24.0469 61.9556 23.875 62.7524ZM46.9844 78.2212C45.9844 78.6274 44.9375 78.4243 44.1719 77.5806C43.4219 76.7681 42.7031 75.9087 41.9844 75.0649C40.5937 73.3931 41.9844 71.1274 43.5937 70.8618C44.1719 70.7681 44.7187 70.7837 45.2344 71.0493C45.3906 71.1274 45.5469 71.2681 45.6562 71.3931C46.5156 72.3774 47.3437 73.3931 48.2344 74.3618C48.5156 74.6743 48.6563 74.9868 48.7188 75.3774C48.7344 75.4868 48.7344 75.5962 48.7344 75.6431C48.75 76.7993 48.0625 77.7993 46.9844 78.2212ZM52.5781 73.5181C51.9844 74.1118 51.3906 74.3774 50.5625 74.3931C49.9531 74.3774 49.2969 74.1431 48.7969 73.5806C48.0938 72.7681 47.375 71.9712 46.6875 71.1431C45.9063 70.2056 45.8281 69.0493 46.4688 68.0962C47 67.2993 48.0781 66.4868 49.4844 66.8931C49.9375 67.0181 50.3281 67.2524 50.6406 67.6118C51.3438 68.4243 52.0625 69.2212 52.75 70.0493C53.6406 71.1274 53.5781 72.5181 52.5781 73.5181ZM57.6875 68.8931C57.2187 69.7212 56.5 70.2368 55.5469 70.3774C54.9844 70.4556 54.4531 70.3149 53.9688 70.0181C53.8906 69.9712 53.8437 69.9087 53.7812 69.8462C52.8437 68.7681 51.9219 67.6899 50.9844 66.6118C50.9063 66.5337 50.8594 66.4243 50.8125 66.3306C50.7656 66.1899 50.7188 66.0493 50.6875 65.8931C50.6562 65.7524 50.6562 65.5962 50.6562 65.4399C50.6719 64.3618 51.4219 63.3462 52.5 62.9243C53.4844 62.5493 54.5625 62.8149 55.2969 63.6274C56.0312 64.4556 56.75 65.2837 57.4531 66.1118C58.0937 66.8931 58.1875 68.0337 57.6875 68.8931ZM58.875 66.1587C58.6563 66.0493 58.4844 65.9087 58.3281 65.7212C57.4531 64.7056 56.5625 63.6899 55.6562 62.6743C55.4531 62.4556 55.3906 62.2056 55.3281 61.9399C55.2031 61.2681 55.3125 60.6431 55.7031 60.0806C56.2812 59.2368 57.3438 58.5024 58.6875 58.8618C59.1563 58.9868 59.5625 59.2212 59.875 59.5962C60.5937 60.4243 61.3125 61.2524 62.0312 62.0806C62.4219 62.5337 62.6094 63.0649 62.5938 63.6587C62.6719 65.3462 60.6563 66.9868 58.875 66.1587ZM78.5 52.5024C75.5 53.9556 72.5 55.4243 69.5 56.8774C69.0312 57.0962 68.6719 57.3931 68.3906 57.8306C67.4375 59.2837 66.2813 60.5493 64.8594 61.5806C64.3906 61.9243 63.9219 62.2212 63.3594 62.4712C63.1094 61.7993 62.625 61.3306 62.1875 60.8149C61.6719 60.2212 61.1563 59.6274 60.6406 59.0337C59.4844 57.7056 57.5937 57.4399 56.125 58.3931C54.9375 59.1587 54.2969 60.2524 54.3438 61.6899C54.3438 61.7524 54.3438 61.8149 54.3438 61.8774C54.3438 61.8931 54.3281 61.8931 54.2969 61.9556C53.0937 61.6899 51.9687 61.9243 51.0156 62.7524C50.0469 63.5806 49.625 64.6431 49.7031 65.9556C48.4219 65.6587 47.3125 65.9243 46.3594 66.7681C45.3906 67.6118 44.9844 68.6743 45.0938 69.9243C44.6563 69.9087 44.25 69.8774 43.8438 69.8931C41.4688 70.0493 40.2812 72.3149 40.4687 73.8774C40.5469 74.5649 40.8281 75.1743 41.2656 75.7056C41.6563 76.1743 42.0625 76.6431 42.4531 77.1118C42.5625 77.2368 42.6563 77.3618 42.7969 77.5024C42.0625 78.2056 41.375 78.9399 40.2813 79.0024C39.2344 79.0649 38.3438 78.7212 37.7813 77.8149C37.2188 76.9087 37.2344 75.9712 37.7656 75.0493C37.8125 74.9556 37.875 74.8774 37.9219 74.7993C37.9375 74.7837 37.9375 74.7524 37.9531 74.6899C37.8125 74.5337 37.6563 74.3618 37.4844 74.1743C37.3594 74.2681 37.2656 74.3462 37.1563 74.4243C36.2344 75.1274 35 75.2056 34.0156 74.6274C33 74.0337 32.5469 72.9399 32.875 71.7993C32.9844 71.4087 33.1719 71.0337 33.3438 70.6118C33.2188 70.4712 33.0469 70.2993 32.875 70.1118C32.7344 70.2056 32.6094 70.2993 32.5 70.3774C31.7187 70.9087 30.875 71.0181 30 70.7212C28.3437 70.1431 27.7187 68.1743 28.75 66.7212C29.0156 66.3618 29.3281 66.0337 29.6094 65.6743C29.7187 65.5337 29.8281 65.4087 29.9375 65.2368C29.75 65.1587 29.6562 65.2681 29.5312 65.3149C29.0937 65.5337 28.6719 65.7681 28.2187 65.9556C27.25 66.3618 26.3281 66.2212 25.5 65.5806C25.1875 65.3462 24.9531 65.0337 24.7969 64.6743C24.6719 64.4243 24.5938 64.1743 24.6875 63.8774C24.7188 63.7837 24.7188 63.6743 24.7188 63.5806C24.7188 62.7681 25.0625 62.1118 25.6563 61.5806C27.1719 60.2212 28.6719 58.8462 30.1875 57.4868C32.5625 55.3462 34.9375 53.1899 37.2969 51.0337C37.5469 50.7993 37.75 50.5024 38 50.2056C38.25 50.2056 38.5781 50.1899 38.8906 50.2056C39.5469 50.2212 40.2187 50.2681 40.875 50.2837C41.1094 50.2837 41.2969 50.3618 41.5 50.5024C43.0313 51.5962 44.5469 52.6743 46.0937 53.7524C47.3437 54.6274 48.6562 54.7056 50.0312 54.0493C51.9375 53.1431 52.7969 50.2524 51.0781 48.3618C50.5469 47.7837 49.9844 47.2212 49.4375 46.6743C47.9844 45.1899 46.5156 43.7212 45.0625 42.2524C45.0312 42.2212 45.0156 42.1899 44.9844 42.1274C45.0781 42.0806 45.1719 42.0493 45.25 42.0181C48.4688 41.0337 51.6719 41.1274 54.8594 42.2056C55.6406 42.4712 56.4219 42.7212 57.2031 43.0024C58 43.2837 58.7344 43.2212 59.4688 42.7837C61.2813 41.7056 63.1094 40.6587 64.9375 39.5962C69.3438 37.0337 73.75 34.4712 78.1406 31.9087C78.2656 31.8306 78.4062 31.7524 78.5469 31.7056C78.7187 31.6431 78.8125 31.7056 78.8594 31.8774C78.8906 32.0024 78.8906 32.1274 78.8906 32.2524C78.9063 33.7837 78.9063 35.2993 78.9219 36.8306C78.9531 41.2681 78.9844 45.7056 79.0156 50.1431C79.0156 50.6743 79.0156 51.1899 79.0469 51.7212C79.0469 52.0806 78.875 52.3149 78.5 52.5024Z" fill="white"/>
<path d="M79.875 47.3306C79.8594 42.8618 79.8438 38.3774 79.8281 33.9087C79.8281 33.2056 79.8281 32.5024 79.7813 31.8149C79.7344 30.9243 78.9375 30.4556 78.125 30.7993C77.9531 30.8774 77.7969 30.9712 77.625 31.0649C73.7656 33.3149 69.8906 35.5649 66.0313 37.8149C63.6719 39.1899 61.3281 40.5493 58.9844 41.9399C58.5 42.2212 58.0156 42.2837 57.4844 42.0806C56.6719 41.7837 55.8594 41.5181 55.0469 41.2524C51.9531 40.2212 48.8281 40.0806 45.6719 40.8931C45.1719 41.0181 44.6719 41.1899 44.1563 41.3462C44.0781 41.2681 44 41.2056 43.9062 41.1274C40.1875 37.7524 35.8281 36.4712 30.8906 37.1743C28.4531 37.5181 26.0312 37.9556 23.6094 38.3618C23.3281 38.4087 23.0781 38.3774 22.8125 38.2524C16.3594 35.2056 9.89063 32.1743 3.42188 29.1431C3.15625 29.0181 2.875 28.8774 2.60938 28.7681C2.125 28.5806 1.6875 28.7368 1.40625 29.1587C1.35938 29.2368 1.29688 29.3149 1.23438 29.3931C1.23438 36.4243 1.23438 43.4399 1.23438 50.4712C1.26563 50.5181 1.3125 50.5493 1.32813 50.5962C1.5 51.1743 1.9375 51.4712 2.45313 51.7212C6.54688 53.7056 10.625 55.7056 14.7031 57.6899C15.3125 57.9868 15.8281 58.3931 16.2344 58.9243C17.5469 60.6118 19.1094 62.0181 20.875 63.1899C21.1875 63.4087 21.5469 63.5649 21.8906 63.7524C21.9687 63.7993 22.0156 63.8618 22.0938 63.9087C22.6094 64.2837 23.125 64.6587 23.7656 64.7837C24.4375 66.3931 25.6875 67.1274 27.3906 67.1431C27.3438 67.4243 27.2813 67.6431 27.2656 67.8774C27.25 68.1118 27.2344 68.3618 27.2656 68.5806C27.5313 70.7524 29.4375 72.1274 31.5938 71.7212C31.6719 71.7056 31.75 71.7212 31.8438 71.7212C31.8281 71.9399 31.8125 72.1431 31.7969 72.3306C31.75 73.4712 32.1875 74.4087 33.0625 75.1118C33.9687 75.8462 35.0156 76.0337 36.1406 75.8462C36.2344 75.8306 36.3281 75.8306 36.4375 75.8149C36.4219 75.9087 36.4219 75.9712 36.4219 76.0337C36.2656 77.9399 37.4375 79.4868 39.3125 79.8618C39.5 79.8931 39.6719 79.9556 39.8437 80.0024C39.9687 80.0024 40.0938 80.0024 40.2188 80.0024C40.2813 79.9868 40.3281 79.9556 40.3906 79.9399C41.25 79.8306 41.9844 79.4712 42.6406 78.8931C42.8906 78.6743 43.1406 78.4556 43.4063 78.2212C44.625 79.3774 46.0312 79.7212 47.5625 78.9556C49.0781 78.2056 49.7813 76.9243 49.6563 75.1899C50.9219 75.4868 52.0156 75.2368 52.9687 74.4087C53.9219 73.5649 54.375 72.5181 54.2656 71.2056C55.5313 71.5024 56.6562 71.2368 57.6094 70.4087C58.5937 69.5649 59 68.4868 58.8906 67.2056C61.2813 67.8149 63.6563 65.8618 63.5625 63.4243C63.6094 63.3931 63.6563 63.3618 63.7188 63.3462C64.3906 63.0337 65.0156 62.6431 65.6094 62.1899C67.0313 61.1118 68.2031 59.8149 69.1719 58.3306C69.3437 58.0649 69.5625 57.8931 69.8437 57.7524C72.8125 56.2993 75.7969 54.8462 78.7656 53.4087C79.2969 53.1587 79.7187 52.8462 79.9062 52.2681C79.9062 50.7368 79.9062 49.2212 79.9062 47.6899C79.9063 47.5806 79.875 47.4556 79.875 47.3306ZM23.875 62.7524C23.8125 63.0649 23.7813 63.3931 23.7344 63.7524C23.5469 63.6899 23.3906 63.5962 23.2187 63.4868L23.2031 63.5337L21.8594 62.7056L21.8438 62.6743C21.2969 62.2837 20.7813 61.9243 20.2813 61.5493C19.0938 60.6431 18.0156 59.5962 17.0938 58.4087C16.5625 57.7368 15.9063 57.1899 15.1406 56.8149C11.0469 54.8306 6.95313 52.8306 2.85938 50.8306C2.76563 50.7837 2.6875 50.7368 2.59375 50.6899C2.375 50.5806 2.26563 50.3931 2.26563 50.1431C2.26563 50.0337 2.26563 49.9243 2.26563 49.7993C2.26563 43.3931 2.26563 37.0024 2.26563 30.5962C2.26563 30.2837 2.26563 29.9712 2.26563 29.6118C2.4375 29.6743 2.5625 29.7368 2.70313 29.7993C5.29688 31.0181 7.90625 32.2368 10.5 33.4556C14.5 35.3306 18.5 37.2056 22.5 39.0962C22.875 39.2681 23.2344 39.3462 23.6562 39.2837C25.875 38.9087 28.0937 38.5493 30.3125 38.1743C31.7344 37.9399 33.1562 37.7993 34.6094 37.9243C38.0469 38.2524 41.0312 39.5493 43.5 41.9712C45.6094 44.0337 47.6563 46.1587 49.7344 48.2524C49.9531 48.4712 50.1563 48.6743 50.3594 48.8931C51.5156 50.1431 51.0937 51.6274 50.4687 52.4712C49.8437 53.2837 48.3281 53.8774 47 53.1274C46.8281 53.0337 46.6563 52.9087 46.5 52.7993C44.9688 51.7212 43.4375 50.6274 41.9062 49.5493C41.7031 49.3931 41.4688 49.3149 41.2188 49.3149C40.1875 49.2837 39.1719 49.2368 38.1406 49.1899C38 49.1899 37.8594 49.2368 37.75 49.3306L36.3437 50.6274L36.1875 50.7368C32.5 54.0806 28.7969 57.4243 25.1094 60.7681C24.5 61.3306 24.0469 61.9556 23.875 62.7524ZM46.9844 78.2212C45.9844 78.6274 44.9375 78.4243 44.1719 77.5806C43.4219 76.7681 42.7031 75.9087 41.9844 75.0649C40.5937 73.3931 41.9844 71.1274 43.5937 70.8618C44.1719 70.7681 44.7187 70.7837 45.2344 71.0493C45.3906 71.1274 45.5469 71.2681 45.6562 71.3931C46.5156 72.3774 47.3437 73.3931 48.2344 74.3618C48.5156 74.6743 48.6563 74.9868 48.7188 75.3774C48.7344 75.4868 48.7344 75.5962 48.7344 75.6431C48.75 76.7993 48.0625 77.7993 46.9844 78.2212ZM52.5781 73.5181C51.9844 74.1118 51.3906 74.3774 50.5625 74.3931C49.9531 74.3774 49.2969 74.1431 48.7969 73.5806C48.0938 72.7681 47.375 71.9712 46.6875 71.1431C45.9063 70.2056 45.8281 69.0493 46.4688 68.0962C47 67.2993 48.0781 66.4868 49.4844 66.8931C49.9375 67.0181 50.3281 67.2524 50.6406 67.6118C51.3438 68.4243 52.0625 69.2212 52.75 70.0493C53.6406 71.1274 53.5781 72.5181 52.5781 73.5181ZM57.6875 68.8931C57.2187 69.7212 56.5 70.2368 55.5469 70.3774C54.9844 70.4556 54.4531 70.3149 53.9688 70.0181C53.8906 69.9712 53.8437 69.9087 53.7812 69.8462C52.8437 68.7681 51.9219 67.6899 50.9844 66.6118C50.9063 66.5337 50.8594 66.4243 50.8125 66.3306C50.7656 66.1899 50.7188 66.0493 50.6875 65.8931C50.6562 65.7524 50.6562 65.5962 50.6562 65.4399C50.6719 64.3618 51.4219 63.3462 52.5 62.9243C53.4844 62.5493 54.5625 62.8149 55.2969 63.6274C56.0312 64.4556 56.75 65.2837 57.4531 66.1118C58.0937 66.8931 58.1875 68.0337 57.6875 68.8931ZM58.875 66.1587C58.6563 66.0493 58.4844 65.9087 58.3281 65.7212C57.4531 64.7056 56.5625 63.6899 55.6562 62.6743C55.4531 62.4556 55.3906 62.2056 55.3281 61.9399C55.2031 61.2681 55.3125 60.6431 55.7031 60.0806C56.2812 59.2368 57.3438 58.5024 58.6875 58.8618C59.1563 58.9868 59.5625 59.2212 59.875 59.5962C60.5937 60.4243 61.3125 61.2524 62.0312 62.0806C62.4219 62.5337 62.6094 63.0649 62.5938 63.6587C62.6719 65.3462 60.6563 66.9868 58.875 66.1587ZM78.5 52.5024C75.5 53.9556 72.5 55.4243 69.5 56.8774C69.0312 57.0962 68.6719 57.3931 68.3906 57.8306C67.4375 59.2837 66.2813 60.5493 64.8594 61.5806C64.3906 61.9243 63.9219 62.2212 63.3594 62.4712C63.1094 61.7993 62.625 61.3306 62.1875 60.8149C61.6719 60.2212 61.1563 59.6274 60.6406 59.0337C59.4844 57.7056 57.5937 57.4399 56.125 58.3931C54.9375 59.1587 54.2969 60.2524 54.3438 61.6899C54.3438 61.7524 54.3438 61.8149 54.3438 61.8774C54.3438 61.8931 54.3281 61.8931 54.2969 61.9556C53.0937 61.6899 51.9687 61.9243 51.0156 62.7524C50.0469 63.5806 49.625 64.6431 49.7031 65.9556C48.4219 65.6587 47.3125 65.9243 46.3594 66.7681C45.3906 67.6118 44.9844 68.6743 45.0938 69.9243C44.6563 69.9087 44.25 69.8774 43.8438 69.8931C41.4688 70.0493 40.2812 72.3149 40.4687 73.8774C40.5469 74.5649 40.8281 75.1743 41.2656 75.7056C41.6563 76.1743 42.0625 76.6431 42.4531 77.1118C42.5625 77.2368 42.6563 77.3618 42.7969 77.5024C42.0625 78.2056 41.375 78.9399 40.2813 79.0024C39.2344 79.0649 38.3438 78.7212 37.7813 77.8149C37.2188 76.9087 37.2344 75.9712 37.7656 75.0493C37.8125 74.9556 37.875 74.8774 37.9219 74.7993C37.9375 74.7837 37.9375 74.7524 37.9531 74.6899C37.8125 74.5337 37.6563 74.3618 37.4844 74.1743C37.3594 74.2681 37.2656 74.3462 37.1563 74.4243C36.2344 75.1274 35 75.2056 34.0156 74.6274C33 74.0337 32.5469 72.9399 32.875 71.7993C32.9844 71.4087 33.1719 71.0337 33.3438 70.6118C33.2188 70.4712 33.0469 70.2993 32.875 70.1118C32.7344 70.2056 32.6094 70.2993 32.5 70.3774C31.7187 70.9087 30.875 71.0181 30 70.7212C28.3437 70.1431 27.7187 68.1743 28.75 66.7212C29.0156 66.3618 29.3281 66.0337 29.6094 65.6743C29.7187 65.5337 29.8281 65.4087 29.9375 65.2368C29.75 65.1587 29.6562 65.2681 29.5312 65.3149C29.0937 65.5337 28.6719 65.7681 28.2187 65.9556C27.25 66.3618 26.3281 66.2212 25.5 65.5806C25.1875 65.3462 24.9531 65.0337 24.7969 64.6743C24.6719 64.4243 24.5938 64.1743 24.6875 63.8774C24.7188 63.7837 24.7188 63.6743 24.7188 63.5806C24.7188 62.7681 25.0625 62.1118 25.6563 61.5806C27.1719 60.2212 28.6719 58.8462 30.1875 57.4868C32.5625 55.3462 34.9375 53.1899 37.2969 51.0337C37.5469 50.7993 37.75 50.5024 38 50.2056C38.25 50.2056 38.5781 50.1899 38.8906 50.2056C39.5469 50.2212 40.2187 50.2681 40.875 50.2837C41.1094 50.2837 41.2969 50.3618 41.5 50.5024C43.0313 51.5962 44.5469 52.6743 46.0937 53.7524C47.3437 54.6274 48.6562 54.7056 50.0312 54.0493C51.9375 53.1431 52.7969 50.2524 51.0781 48.3618C50.5469 47.7837 49.9844 47.2212 49.4375 46.6743C47.9844 45.1899 46.5156 43.7212 45.0625 42.2524C45.0312 42.2212 45.0156 42.1899 44.9844 42.1274C45.0781 42.0806 45.1719 42.0493 45.25 42.0181C48.4688 41.0337 51.6719 41.1274 54.8594 42.2056C55.6406 42.4712 56.4219 42.7212 57.2031 43.0024C58 43.2837 58.7344 43.2212 59.4688 42.7837C61.2813 41.7056 63.1094 40.6587 64.9375 39.5962C69.3438 37.0337 73.75 34.4712 78.1406 31.9087C78.2656 31.8306 78.4062 31.7524 78.5469 31.7056C78.7187 31.6431 78.8125 31.7056 78.8594 31.8774C78.8906 32.0024 78.8906 32.1274 78.8906 32.2524C78.9063 33.7837 78.9063 35.2993 78.9219 36.8306C78.9531 41.2681 78.9844 45.7056 79.0156 50.1431C79.0156 50.6743 79.0156 51.1899 79.0469 51.7212C79.0469 52.0806 78.875 52.3149 78.5 52.5024Z" stroke="white" stroke-width="1.2" mask="url(#path-3-outside-1_22_35)"/>
</g>
<defs>
<clipPath id="clip0_22_35">
<rect width="80" height="80" fill="white" transform="translate(0.5 0.533691)"/>
</clipPath>
</defs>
</svg>
