<svg width="107" height="115" viewBox="0 0 107 115" fill="none" xmlns="http://www.w3.org/2000/svg">
<g clip-path="url(#clip0_4_8)">
<path fill-rule="evenodd" clip-rule="evenodd" d="M38.0098 52.0091C38.0098 53.0563 38.8612 53.9096 39.9103 53.9096C40.9593 53.9096 41.8108 53.0563 41.8108 52.0091C41.8108 50.962 40.9593 50.1086 39.9103 50.1086C38.8612 50.1086 38.0098 50.962 38.0098 52.0091ZM41.8108 86.2179C41.8108 85.1708 40.9593 84.3175 39.9103 84.3175C38.8612 84.3175 38.0098 85.1708 38.0098 86.2179C38.0098 87.2651 38.8612 88.1184 39.9103 88.1184C40.9593 88.1184 41.8108 87.2651 41.8108 86.2179ZM26.6068 52.0091C26.6068 50.962 25.7554 50.1086 24.7064 50.1086C23.6573 50.1086 22.8059 50.962 22.8059 52.0091C22.8059 53.0563 23.6573 53.9096 24.7064 53.9096C25.7554 53.9096 26.6068 53.0563 26.6068 52.0091ZM26.6068 74.815C26.6068 73.7678 25.7554 72.9145 24.7064 72.9145C23.6573 72.9145 22.8059 73.7678 22.8059 74.815C22.8059 75.8622 23.6573 76.7155 24.7064 76.7155C25.7554 76.7155 26.6068 75.8622 26.6068 74.815ZM38.0098 33.0042C38.0098 34.0514 38.8612 34.9047 39.9103 34.9047C40.9593 34.9047 41.8108 34.0514 41.8108 33.0042C41.8108 31.9571 40.9593 31.1038 39.9103 31.1038C38.8612 31.1038 38.0098 31.9571 38.0098 33.0042ZM26.6068 34.9047V46.6574C28.2185 47.2313 29.4842 48.4989 30.0562 50.1086H34.5604C35.3472 47.9003 37.4358 46.3077 39.9103 46.3077C43.0537 46.3077 45.6117 48.8657 45.6117 52.0091C45.6117 54.4836 44.0172 56.5722 41.8108 57.3609V80.8662C44.0172 81.6549 45.6117 83.7435 45.6117 86.2179C45.6117 88.6924 44.0172 90.781 41.8108 91.5697V97.6209C41.8108 98.67 40.9612 99.5214 39.9103 99.5214C38.8593 99.5214 38.0098 98.67 38.0098 97.6209V91.5678C36.0694 90.8779 34.6231 89.1789 34.2981 87.0922L27.1637 79.9596C27.158 79.9558 27.158 79.9482 27.1523 79.9425C26.4092 80.2998 25.5863 80.5165 24.7064 80.5165C21.563 80.5165 19.0049 77.9584 19.0049 74.815C19.0049 71.6716 21.563 69.1135 24.7064 69.1135C27.8498 69.1135 30.4078 71.6716 30.4078 74.815C30.4078 75.693 30.1912 76.5178 29.8339 77.2609C29.8396 77.2666 29.8453 77.2685 29.851 77.2723L35.3757 82.799C36.0428 81.9171 36.9512 81.2444 38.0098 80.8662V57.359C36.3982 56.787 35.1324 55.5193 34.5604 53.9096H30.0562C29.2694 56.118 27.1808 57.7106 24.7064 57.7106C21.563 57.7106 19.0049 55.1525 19.0049 52.0091C19.0049 49.5347 20.5994 47.4461 22.8059 46.6574V33.0042C22.8059 31.9552 23.6554 31.1038 24.7064 31.1038H34.5604C35.1324 29.494 36.3982 28.2264 38.0098 27.6525V21.6013C38.0098 20.5522 38.8593 19.7008 39.9103 19.7008C40.9612 19.7008 41.8108 20.5522 41.8108 21.6013V27.6525C44.0172 28.4412 45.6117 30.5298 45.6117 33.0042C45.6117 36.1477 43.0537 38.7057 39.9103 38.7057C37.4358 38.7057 35.3472 37.1131 34.5604 34.9047H26.6068ZM101.929 71.4796C104.759 68.9919 106.427 65.3924 106.427 61.5116C106.427 57.4445 104.62 53.7082 101.515 51.1995C102.246 49.6734 102.626 48.0105 102.626 46.3077C102.626 42.3851 100.568 38.7722 97.3203 36.7102C98.3009 35.0017 98.8254 33.0746 98.8254 31.1038C98.8254 26.2005 95.7105 21.9377 91.2026 20.3641C91.2159 20.1417 91.2235 19.9213 91.2235 19.7008C91.2235 13.4121 86.1093 8.29788 79.8205 8.29788C78.2868 8.29788 76.7931 8.60956 75.3981 9.21012C73.7637 4.26124 69.0638 0.695923 63.6664 0.695923C55.6691 0.695923 52.1133 7.91018 51.3512 11.7264C51.3379 11.7891 51.355 11.8499 51.3512 11.9145C51.3455 11.9791 51.3132 12.0323 51.3132 12.0989V101.308C50.8837 106.703 46.3016 110.924 40.8605 110.924C35.4384 110.924 30.8696 106.688 30.4572 101.277C30.3812 100.287 29.4994 99.5214 28.5073 99.5214C27.9144 99.5214 27.3556 99.7988 26.9945 100.27C25.5198 102.211 23.3 103.322 20.9054 103.322C16.7129 103.322 13.3034 99.9129 13.3034 95.7204C13.3034 93.9947 13.904 92.3451 15.0443 90.9483C15.5574 90.3192 15.6144 89.4317 15.183 88.7418C14.7535 88.0519 13.9401 87.7098 13.1381 87.898C12.5014 88.0462 11.9332 88.1184 11.4029 88.1184C7.21046 88.1184 3.80098 84.709 3.80098 80.5165C3.80098 77.3826 5.79079 74.5318 8.74985 73.4219C9.45493 73.1578 9.93766 72.504 9.98137 71.7552C10.0251 71.0045 9.62218 70.2975 8.95701 69.9536C5.77559 68.3134 3.80098 65.0769 3.80098 61.5116C3.80098 58.1591 5.52472 55.1183 8.41347 53.3775C8.86388 53.1057 9.18126 52.6591 9.29149 52.1441C9.39982 51.6271 9.28959 51.0912 8.98741 50.6598C8.08088 49.3656 7.60196 47.8623 7.60196 46.3077C7.60196 43.151 9.61267 40.2945 12.6021 39.1979C13.1932 38.9813 13.6398 38.4853 13.7938 37.8752C13.9458 37.2632 13.7842 36.6152 13.3642 36.1458C12.0985 34.7337 11.4029 32.9434 11.4029 31.1038C11.4029 27.4206 14.0427 24.2829 17.6764 23.6405C18.1858 23.5493 18.64 23.2547 18.927 22.8233C19.2139 22.3919 19.3128 21.8617 19.2025 21.3561C19.0695 20.7632 19.0049 20.2215 19.0049 19.7008C19.0049 15.5083 22.4144 12.0989 26.6068 12.0989C28.2527 12.0989 29.8396 12.6481 31.1984 13.6877C31.7515 14.1096 32.4908 14.197 33.1236 13.9157C33.7603 13.6326 34.1898 13.0263 34.2487 12.3345C34.6098 7.94059 38.35 4.4969 42.761 4.4969C44.8782 4.4969 46.6285 5.17728 48.1109 6.57604C48.8768 7.29632 50.0798 7.26021 50.7982 6.49622C51.5185 5.73222 51.4843 4.53111 50.7203 3.81082C48.529 1.74309 45.8512 0.695923 42.761 0.695923C37.3636 0.695923 32.6637 4.26124 31.0293 9.21012C29.6343 8.60956 28.1405 8.29788 26.6068 8.29788C20.3181 8.29788 15.2039 13.4121 15.2039 19.7008C15.2039 19.9213 15.2115 20.1417 15.2248 20.3641C10.7169 21.9377 7.60196 26.2005 7.60196 31.1038C7.60196 33.0746 8.12649 35.0017 9.10714 36.7102C5.85921 38.7722 3.80098 42.3851 3.80098 46.3077C3.80098 48.0105 4.18108 49.6734 4.91276 51.1995C1.80737 53.7082 0 57.4445 0 61.5116C0 65.3924 1.66863 68.9919 4.49846 71.4796C1.72184 73.6025 0 76.936 0 80.5165C0 86.3947 4.47185 91.2485 10.1923 91.8548C9.73621 93.0863 9.50245 94.3862 9.50245 95.7204C9.50245 102.009 14.6167 107.123 20.9054 107.123C23.2658 107.123 25.5122 106.407 27.3975 105.094C29.336 110.708 34.6934 114.725 40.8605 114.725C48.2876 114.725 54.5459 108.944 55.1085 101.566C55.1104 101.542 55.099 101.519 55.099 101.494C55.1009 101.467 55.1142 101.448 55.1142 101.422V12.3079C55.3955 11.141 57.2712 4.4969 63.6664 4.4969C68.0774 4.4969 71.8176 7.94059 72.1787 12.3345C72.2376 13.0263 72.6671 13.6326 73.3038 13.9157C73.9366 14.197 74.6759 14.1096 75.229 13.6877C76.5878 12.6481 78.1747 12.0989 79.8205 12.0989C84.013 12.0989 87.4225 15.5083 87.4225 19.7008C87.4225 20.2215 87.3579 20.7632 87.2249 21.3561C87.1146 21.8617 87.2134 22.3919 87.5004 22.8233C87.7874 23.2547 88.2416 23.5493 88.7509 23.6405C92.3847 24.2829 95.0245 27.4206 95.0245 31.1038C95.0245 32.9434 94.3289 34.7337 93.0632 36.1458C92.6431 36.6152 92.4816 37.2632 92.6336 37.8752C92.7876 38.4853 93.2342 38.9813 93.8252 39.1979C96.8147 40.2945 98.8254 43.151 98.8254 46.3077C98.8254 47.8623 98.3465 49.3656 97.44 50.6598C97.1378 51.0912 97.0276 51.6271 97.1359 52.1441C97.2461 52.6591 97.5635 53.1057 98.0139 53.3775C100.903 55.1183 102.626 58.1591 102.626 61.5116C102.626 65.0769 100.652 68.3134 97.4704 69.9536C96.8052 70.2975 96.4023 71.0045 96.446 71.7552C96.4897 72.504 96.9725 73.1578 97.6775 73.4219C100.637 74.5318 102.626 77.3826 102.626 80.5165C102.626 84.709 99.2169 88.1184 95.0245 88.1184C94.4942 88.1184 93.926 88.0462 93.2893 87.898C92.4911 87.7098 91.6758 88.0519 91.2444 88.7418C90.813 89.4317 90.87 90.3192 91.3831 90.9483C92.5234 92.3451 93.124 93.9947 93.124 95.7204C93.124 99.9129 89.7145 103.322 85.522 103.322C83.1198 103.322 80.9038 102.197 79.4442 100.234C78.9539 99.5784 78.1006 99.3104 77.3233 99.5651C77.042 99.6582 76.795 99.8121 76.5954 100.008C76.2419 100.323 76.0082 100.772 75.9702 101.277C75.5577 106.688 70.989 110.924 65.5669 110.924C63.178 110.924 60.924 110.139 59.0482 108.655C58.2215 108.003 57.0299 108.144 56.378 108.965C55.7261 109.788 55.8668 110.983 56.6878 111.635C59.2059 113.627 62.3608 114.725 65.5669 114.725C71.7378 114.725 77.099 110.7 79.0337 105.08C80.9133 106.403 83.1559 107.123 85.522 107.123C91.8107 107.123 96.9249 102.009 96.9249 95.7204C96.9249 94.3862 96.6912 93.0863 96.2351 91.8548C101.956 91.2485 106.427 86.3947 106.427 80.5165C106.427 76.936 104.706 73.6025 101.929 71.4796ZM68.4176 86.2179C68.4176 87.267 69.2671 88.1184 70.3181 88.1184C73.089 88.1184 76.0196 91.049 76.0196 93.8199C76.0196 94.869 76.8691 95.7204 77.9201 95.7204C78.971 95.7204 79.8205 94.869 79.8205 93.8199C79.8205 88.9356 75.2024 84.3175 70.3181 84.3175C69.2671 84.3175 68.4176 85.1689 68.4176 86.2179ZM85.522 34.9047C82.7511 34.9047 79.8205 31.9742 79.8205 29.2033C79.8205 28.1542 78.971 27.3028 77.9201 27.3028C76.8691 27.3028 76.0196 28.1542 76.0196 29.2033C76.0196 34.0875 80.6378 38.7057 85.522 38.7057C86.573 38.7057 87.4225 37.8543 87.4225 36.8052C87.4225 35.7561 86.573 34.9047 85.522 34.9047ZM62.7161 76.7155C63.7671 76.7155 64.6166 75.8641 64.6166 74.815C64.6166 72.0441 67.5472 69.1135 70.3181 69.1135C71.3691 69.1135 72.2186 68.2621 72.2186 67.2131C72.2186 66.164 71.3691 65.3126 70.3181 65.3126C65.4338 65.3126 60.8157 69.9307 60.8157 74.815C60.8157 75.8641 61.6652 76.7155 62.7161 76.7155ZM70.3181 53.9096C71.3691 53.9096 72.2186 53.0582 72.2186 52.0091C72.2186 50.9601 71.3691 50.1086 70.3181 50.1086C67.5472 50.1086 64.6166 47.1781 64.6166 44.4072C64.6166 43.3581 63.7671 42.5067 62.7161 42.5067C61.6652 42.5067 60.8157 43.3581 60.8157 44.4072C60.8157 49.2914 65.4338 53.9096 70.3181 53.9096ZM89.323 46.3077C88.272 46.3077 87.4225 47.1591 87.4225 48.2082C87.4225 50.9791 84.492 53.9096 81.721 53.9096C80.6701 53.9096 79.8205 54.761 79.8205 55.8101C79.8205 56.8592 80.6701 57.7106 81.721 57.7106C86.6053 57.7106 91.2235 53.0924 91.2235 48.2082C91.2235 47.1591 90.374 46.3077 89.323 46.3077ZM81.721 69.1135C80.6701 69.1135 79.8205 69.965 79.8205 71.014C79.8205 72.0631 80.6701 72.9145 81.721 72.9145C84.492 72.9145 87.4225 75.8451 87.4225 78.616C87.4225 79.6651 88.272 80.5165 89.323 80.5165C90.374 80.5165 91.2235 79.6651 91.2235 78.616C91.2235 73.7317 86.6053 69.1135 81.721 69.1135ZM60.8157 27.3028C60.8157 22.4185 65.4338 17.8003 70.3181 17.8003C71.3691 17.8003 72.2186 18.6517 72.2186 19.7008C72.2186 20.7499 71.3691 21.6013 70.3181 21.6013C67.5472 21.6013 64.6166 24.5319 64.6166 27.3028C64.6166 28.3518 63.7671 29.2033 62.7161 29.2033C61.6652 29.2033 60.8157 28.3518 60.8157 27.3028Z" fill="#329CFE"/>
</g>
<defs>
<clipPath id="clip0_4_8">
<rect width="106.427" height="114.029" fill="white" transform="translate(0 0.695923)"/>
</clipPath>
</defs>
</svg>
