<svg width="137" height="146" viewBox="0 0 137 146" fill="none" xmlns="http://www.w3.org/2000/svg">
<path d="M121.122 55.068C121.122 46.0338 117.805 37.5377 111.76 31.1373C105.714 24.7369 97.6893 21.2252 89.1562 21.2252C81.4791 21.2252 74.23 24.0572 68.4521 29.2965C55.9065 17.9967 36.9946 18.6197 25.1713 31.1373C18.9119 37.7643 15.809 46.4586 15.8357 55.1246H13.3748V60.7887H16.3172C17.3872 67.4439 20.3564 73.8443 25.1981 78.9703L68.4788 124.821L87.1767 105.025L83.405 101.032L68.4788 116.806L28.9698 74.9771C25.1713 70.9557 22.7639 65.9996 21.7474 60.817H31.9657L38.0111 50.5367L52.4558 76.7896L62.9684 62.7144L72.4912 77.2144L85.4915 51.0182L98.3045 77.5543L107.961 60.7603H115.21C114.167 66.0846 111.679 70.984 107.961 74.9205L87.15 96.9537L90.9217 100.947L111.733 78.9137C116.467 73.901 119.544 67.5855 120.64 60.732H123.583V55.068H121.122C121.122 55.1246 121.122 55.0963 121.122 55.068ZM115.772 55.1246H104.965L98.7058 65.9713L85.545 38.7271L71.8493 66.3394L63.2359 53.2271L53.0978 66.7926L38.1181 39.6051L28.943 55.1812H21.1856C21.1589 47.9312 23.7536 40.7096 28.9698 35.1871C33.9987 29.8629 40.6861 26.9459 47.7747 26.9459C54.8901 26.9459 61.5507 29.8629 66.5796 35.1871L68.4788 37.1978L70.378 35.1871C75.4069 29.8629 82.0943 26.9459 89.1829 26.9459C96.2716 26.9459 102.959 29.8629 107.988 35.1871C113.017 40.5113 115.772 47.5914 115.772 55.1246Z" fill="#329CFE"/>
<path d="M134.283 55.1246H128.933V60.7887H134.283V55.1246Z" fill="#329CFE"/>
<path d="M8.02486 55.1246H2.67496V60.7887H8.02486V55.1246Z" fill="#329CFE"/>
</svg>
