<svg width="33" height="33" viewBox="0 0 33 33" xmlns="http://www.w3.org/2000/svg" >
<path d="M4.5 10.6855H28.5C29.604 10.6855 30.5 9.78955 30.5 8.68555C30.5 7.58155 29.604 6.68555 28.5 6.68555H4.5C3.396 6.68555 2.5 7.58155 2.5 8.68555C2.5 9.78955 3.396 10.6855 4.5 10.6855ZM28.5 14.6855H4.5C3.396 14.6855 2.5 15.5815 2.5 16.6855C2.5 17.7895 3.396 18.6855 4.5 18.6855H28.5C29.604 18.6855 30.5 17.7895 30.5 16.6855C30.5 15.5815 29.604 14.6855 28.5 14.6855ZM28.5 22.6855H4.5C3.396 22.6855 2.5 23.5815 2.5 24.6855C2.5 25.7895 3.396 26.6855 4.5 26.6855H28.5C29.604 26.6855 30.5 25.7895 30.5 24.6855C30.5 23.5815 29.604 22.6855 28.5 22.6855Z" />
</svg>
