<svg width="206" height="41" viewBox="0 0 206 41" fill="none" xmlns="http://www.w3.org/2000/svg">
<path d="M30.3198 8.29077H3.66725C3.10064 8.29077 2.64215 8.74926 2.64215 9.31587V29.8178C2.64215 30.3845 3.10064 30.8429 3.66725 30.8429H12.8931V34.9433H9.81784C9.25124 34.9433 8.79274 35.4018 8.79274 35.9684C8.79274 36.535 9.25124 36.9935 9.81784 36.9935H13.9182H20.0688H24.1692C24.7358 36.9935 25.1943 36.535 25.1943 35.9684C25.1943 35.4018 24.7358 34.9433 24.1692 34.9433H21.0939V30.8429H30.3198C30.8864 30.8429 31.3449 30.3845 31.3449 29.8178V9.31587C31.3449 8.74926 30.8864 8.29077 30.3198 8.29077ZM19.0437 34.9433H14.9433V30.8429H19.0437V34.9433ZM29.2947 28.7927H20.0688H13.9182H4.69235V10.341H29.2947V28.7927Z" fill="white"/>
<path d="M7.76759 20.5919H11.868C12.1903 20.5919 12.4947 20.4398 12.6879 20.1815L14.641 17.5787L17.0586 24.0276C17.1807 24.354 17.461 24.5952 17.8013 24.6693C17.8734 24.6843 17.9465 24.6923 18.0186 24.6923C18.2879 24.6923 18.5491 24.5862 18.7434 24.392L22.5434 20.5919H26.2194C26.786 20.5919 27.2445 20.1335 27.2445 19.5668C27.2445 19.0002 26.786 18.5417 26.2194 18.5417H22.119C21.8467 18.5417 21.5864 18.6499 21.3942 18.8421L18.419 21.8163L15.9033 15.1061C15.7712 14.7557 15.4598 14.5044 15.0884 14.4514C14.719 14.3983 14.3476 14.5525 14.1234 14.8518L11.3554 18.5417H7.76759C7.20098 18.5417 6.74249 19.0002 6.74249 19.5668C6.74249 20.1335 7.20098 20.5919 7.76759 20.5919Z" fill="white"/>
<path d="M44.4766 11.0122C45.4766 11.0122 46.2366 11.1322 46.7566 11.3722C47.2766 11.5922 47.7366 11.8422 48.1366 12.1222C48.3766 12.2622 48.5666 12.3722 48.7066 12.4522C48.8666 12.5122 49.0166 12.5422 49.1566 12.5422C49.3566 12.5422 49.4966 12.4322 49.5766 12.2122C49.6766 11.9922 49.7566 11.6622 49.8166 11.2222H50.5066C50.4866 11.5622 50.4566 11.9722 50.4166 12.4522C50.3966 12.9122 50.3766 13.5322 50.3566 14.3122C50.3566 15.0722 50.3566 16.0822 50.3566 17.3422H49.6666C49.6066 16.3822 49.3966 15.4622 49.0366 14.5822C48.6766 13.7022 48.1466 12.9822 47.4466 12.4222C46.7666 11.8622 45.8666 11.5822 44.7466 11.5822C43.6866 11.5822 42.8066 11.9022 42.1066 12.5422C41.4266 13.1822 41.0866 14.0222 41.0866 15.0622C41.0866 15.9622 41.3166 16.7222 41.7766 17.3422C42.2366 17.9422 42.8466 18.4922 43.6066 18.9922C44.3866 19.4722 45.2266 19.9922 46.1266 20.5522C47.1666 21.1922 48.0866 21.8322 48.8866 22.4722C49.7066 23.0922 50.3466 23.7822 50.8066 24.5422C51.2866 25.3022 51.5266 26.2222 51.5266 27.3022C51.5266 28.5822 51.2366 29.6422 50.6566 30.4822C50.0766 31.3222 49.3066 31.9522 48.3466 32.3722C47.3866 32.7922 46.3266 33.0022 45.1666 33.0022C44.1066 33.0022 43.2666 32.8822 42.6466 32.6422C42.0266 32.4022 41.4966 32.1522 41.0566 31.8922C40.6166 31.6122 40.2766 31.4722 40.0366 31.4722C39.8366 31.4722 39.6866 31.5822 39.5866 31.8022C39.5066 32.0222 39.4366 32.3522 39.3766 32.7922H38.6866C38.7266 32.3722 38.7466 31.8822 38.7466 31.3222C38.7666 30.7422 38.7766 29.9922 38.7766 29.0722C38.7966 28.1522 38.8066 26.9922 38.8066 25.5922H39.4966C39.5766 26.7922 39.7966 27.9122 40.1566 28.9522C40.5366 29.9922 41.1066 30.8322 41.8666 31.4722C42.6466 32.0922 43.6766 32.4022 44.9566 32.4022C45.6166 32.4022 46.2366 32.2722 46.8166 32.0122C47.4166 31.7322 47.9066 31.3022 48.2866 30.7222C48.6666 30.1222 48.8566 29.3522 48.8566 28.4122C48.8566 27.5922 48.6566 26.8822 48.2566 26.2822C47.8766 25.6622 47.3366 25.0922 46.6366 24.5722C45.9366 24.0322 45.1166 23.4822 44.1766 22.9222C43.2366 22.3422 42.3566 21.7522 41.5366 21.1522C40.7166 20.5522 40.0566 19.8622 39.5566 19.0822C39.0766 18.2822 38.8366 17.3222 38.8366 16.2022C38.8366 15.0222 39.0966 14.0522 39.6166 13.2922C40.1566 12.5122 40.8566 11.9422 41.7166 11.5822C42.5766 11.2022 43.4966 11.0122 44.4766 11.0122ZM67.8178 17.1322V17.7322C67.4378 17.7722 67.0878 17.9422 66.7678 18.2422C66.4478 18.5422 66.1478 19.0722 65.8678 19.8322L60.9478 32.7322H60.4378L54.9178 19.4422C54.5378 18.6622 54.1578 18.1922 53.7778 18.0322C53.4178 17.8522 53.1178 17.7622 52.8778 17.7622V17.1322C53.3178 17.1922 53.7778 17.2422 54.2578 17.2822C54.7378 17.3022 55.2578 17.3122 55.8178 17.3122C56.4378 17.3122 57.0878 17.2922 57.7678 17.2522C58.4678 17.2122 59.1178 17.1722 59.7178 17.1322V17.7622C59.2178 17.7622 58.7678 17.8022 58.3678 17.8822C57.9878 17.9422 57.7478 18.1522 57.6478 18.5122C57.5478 18.8522 57.6678 19.4422 58.0078 20.2822L61.6978 29.4322L61.5178 29.4922L64.9378 20.5522C65.1978 19.8922 65.2978 19.3722 65.2378 18.9922C65.1978 18.5922 64.9978 18.2922 64.6378 18.0922C64.2778 17.8922 63.7378 17.7722 63.0178 17.7322V17.1322C63.3778 17.1522 63.6878 17.1722 63.9478 17.1922C64.2078 17.1922 64.4578 17.2022 64.6978 17.2222C64.9578 17.2222 65.2378 17.2222 65.5378 17.2222C65.9978 17.2222 66.4078 17.2122 66.7678 17.1922C67.1478 17.1722 67.4978 17.1522 67.8178 17.1322ZM60.9478 32.7322L59.9278 35.3422C59.7278 35.8422 59.5178 36.2622 59.2978 36.6022C59.0978 36.9422 58.8778 37.2222 58.6378 37.4422C58.3178 37.7422 57.9378 37.9422 57.4978 38.0422C57.0578 38.1622 56.6578 38.2222 56.2978 38.2222C55.9178 38.2222 55.5678 38.1522 55.2478 38.0122C54.9478 37.8722 54.7078 37.6622 54.5278 37.3822C54.3478 37.1222 54.2578 36.8022 54.2578 36.4222C54.2578 35.9422 54.3978 35.5522 54.6778 35.2522C54.9578 34.9722 55.3478 34.8322 55.8478 34.8322C56.2678 34.8322 56.6278 34.9522 56.9278 35.1922C57.2278 35.4322 57.3778 35.7822 57.3778 36.2422C57.3778 36.5822 57.2978 36.8622 57.1378 37.0822C56.9778 37.3022 56.7878 37.4722 56.5678 37.5922C56.6078 37.6122 56.6378 37.6222 56.6578 37.6222C56.6978 37.6222 56.7278 37.6222 56.7478 37.6222C57.2878 37.6222 57.7678 37.4322 58.1878 37.0522C58.6078 36.6922 58.9778 36.1022 59.2978 35.2822L60.3778 32.4922L60.9478 32.7322ZM78.885 16.7122C79.585 16.7122 80.195 16.8122 80.715 17.0122C81.235 17.2122 81.665 17.4922 82.005 17.8522C82.385 18.2522 82.645 18.7722 82.785 19.4122C82.925 20.0522 82.995 20.8422 82.995 21.7822V29.7922C82.995 30.6322 83.165 31.2022 83.505 31.5022C83.865 31.8022 84.455 31.9522 85.275 31.9522V32.5822C84.935 32.5622 84.415 32.5422 83.715 32.5222C83.015 32.4822 82.335 32.4622 81.675 32.4622C81.015 32.4622 80.365 32.4822 79.725 32.5222C79.105 32.5422 78.635 32.5622 78.315 32.5822V31.9522C79.035 31.9522 79.545 31.8022 79.845 31.5022C80.145 31.2022 80.295 30.6322 80.295 29.7922V21.1222C80.295 20.5022 80.255 19.9322 80.175 19.4122C80.095 18.8922 79.895 18.4722 79.575 18.1522C79.255 17.8322 78.735 17.6722 78.015 17.6722C77.235 17.6722 76.535 17.9122 75.915 18.3922C75.315 18.8722 74.835 19.5322 74.475 20.3722C74.135 21.1922 73.965 22.1122 73.965 23.1322V29.7922C73.965 30.6322 74.115 31.2022 74.415 31.5022C74.715 31.8022 75.225 31.9522 75.945 31.9522V32.5822C75.625 32.5622 75.145 32.5422 74.505 32.5222C73.885 32.4822 73.245 32.4622 72.585 32.4622C71.925 32.4622 71.245 32.4822 70.545 32.5222C69.845 32.5422 69.325 32.5622 68.985 32.5822V31.9522C69.805 31.9522 70.385 31.8022 70.725 31.5022C71.085 31.2022 71.265 30.6322 71.265 29.7922V20.4022C71.265 19.5022 71.105 18.8422 70.785 18.4222C70.465 17.9822 69.865 17.7622 68.985 17.7622V17.1322C69.625 17.1922 70.245 17.2222 70.845 17.2222C71.425 17.2222 71.975 17.1922 72.495 17.1322C73.035 17.0522 73.525 16.9422 73.965 16.8022V20.3422C74.485 19.0422 75.195 18.1122 76.095 17.5522C76.995 16.9922 77.925 16.7122 78.885 16.7122ZM87.915 16.7122C88.615 16.7122 89.225 16.8122 89.745 17.0122C90.265 17.2122 90.695 17.4922 91.035 17.8522C91.415 18.2522 91.675 18.7722 91.815 19.4122C91.955 20.0522 92.025 20.8422 92.025 21.7822V29.7922C92.025 30.6322 92.195 31.2022 92.535 31.5022C92.895 31.8022 93.485 31.9522 94.305 31.9522V32.5822C93.965 32.5622 93.445 32.5422 92.745 32.5222C92.045 32.4822 91.365 32.4622 90.705 32.4622C90.045 32.4622 89.395 32.4822 88.755 32.5222C88.135 32.5422 87.665 32.5622 87.345 32.5822V31.9522C88.065 31.9522 88.575 31.8022 88.875 31.5022C89.175 31.2022 89.325 30.6322 89.325 29.7922V21.1222C89.325 20.5022 89.285 19.9322 89.205 19.4122C89.125 18.8922 88.925 18.4722 88.605 18.1522C88.285 17.8322 87.765 17.6722 87.045 17.6722C86.265 17.6722 85.565 17.9122 84.945 18.3922C84.345 18.8722 83.865 19.5222 83.505 20.3422C83.165 21.1622 82.995 22.0822 82.995 23.1022L82.905 20.3122C83.445 18.9322 84.175 17.9922 85.095 17.4922C86.015 16.9722 86.955 16.7122 87.915 16.7122ZM104.526 16.7122C106.166 16.7122 107.526 17.3922 108.606 18.7522C109.686 20.0922 110.226 22.1322 110.226 24.8722C110.226 26.6722 109.916 28.1822 109.296 29.4022C108.696 30.6022 107.886 31.5022 106.866 32.1022C105.846 32.7022 104.736 33.0022 103.536 33.0022C102.536 33.0022 101.566 32.7222 100.626 32.1622C99.7058 31.5822 99.0158 30.7322 98.5558 29.6122L99.1558 29.9422C99.6558 30.7422 100.276 31.3422 101.016 31.7422C101.756 32.1222 102.516 32.3122 103.296 32.3122C104.636 32.3122 105.636 31.7122 106.296 30.5122C106.976 29.2922 107.316 27.4122 107.316 24.8722C107.316 23.2522 107.186 21.9022 106.926 20.8222C106.666 19.7422 106.266 18.9422 105.726 18.4222C105.186 17.8822 104.496 17.6122 103.656 17.6122C102.736 17.6122 101.876 18.0322 101.076 18.8722C100.296 19.6922 99.8158 20.9022 99.6358 22.5022L99.2758 22.0822C99.4958 20.3822 100.086 19.0622 101.046 18.1222C102.026 17.1822 103.186 16.7122 104.526 16.7122ZM99.8458 9.09215V31.0222C99.5858 31.2422 99.3158 31.4722 99.0358 31.7122C98.7758 31.9322 98.5158 32.1522 98.2558 32.3722C97.9958 32.5922 97.7258 32.8222 97.4458 33.0622L96.9358 32.8522C97.0158 32.5722 97.0658 32.2922 97.0858 32.0122C97.1258 31.7122 97.1458 31.4122 97.1458 31.1122V12.6922C97.1458 11.7922 96.9858 11.1322 96.6658 10.7122C96.3458 10.2722 95.7458 10.0522 94.8658 10.0522V9.42215C95.5058 9.48215 96.1258 9.51215 96.7258 9.51215C97.3058 9.51215 97.8558 9.48215 98.3758 9.42215C98.9158 9.34215 99.4058 9.23215 99.8458 9.09215ZM115.94 9.63215C116.46 9.63215 116.91 9.82215 117.29 10.2022C117.67 10.5822 117.86 11.0322 117.86 11.5522C117.86 12.0722 117.67 12.5222 117.29 12.9022C116.91 13.2822 116.46 13.4722 115.94 13.4722C115.42 13.4722 114.97 13.2822 114.59 12.9022C114.21 12.5222 114.02 12.0722 114.02 11.5522C114.02 11.0322 114.21 10.5822 114.59 10.2022C114.97 9.82215 115.42 9.63215 115.94 9.63215ZM117.5 16.8022V29.7922C117.5 30.6322 117.67 31.2022 118.01 31.5022C118.37 31.8022 118.96 31.9522 119.78 31.9522V32.5822C119.44 32.5622 118.92 32.5422 118.22 32.5222C117.54 32.4822 116.85 32.4622 116.15 32.4622C115.47 32.4622 114.78 32.4822 114.08 32.5222C113.38 32.5422 112.86 32.5622 112.52 32.5822V31.9522C113.34 31.9522 113.92 31.8022 114.26 31.5022C114.62 31.2022 114.8 30.6322 114.8 29.7922V20.4022C114.8 19.5022 114.64 18.8422 114.32 18.4222C114 17.9822 113.4 17.7622 112.52 17.7622V17.1322C113.16 17.1922 113.78 17.2222 114.38 17.2222C114.96 17.2222 115.51 17.1922 116.03 17.1322C116.57 17.0522 117.06 16.9422 117.5 16.8022ZM128.659 16.7122C129.939 16.7122 131.089 16.9922 132.109 17.5522C133.129 18.1122 133.939 18.9922 134.539 20.1922C135.159 21.3922 135.469 22.9522 135.469 24.8722C135.469 26.7922 135.159 28.3522 134.539 29.5522C133.939 30.7322 133.129 31.6022 132.109 32.1622C131.089 32.7222 129.939 33.0022 128.659 33.0022C127.399 33.0022 126.249 32.7222 125.209 32.1622C124.189 31.6022 123.369 30.7322 122.749 29.5522C122.149 28.3522 121.849 26.7922 121.849 24.8722C121.849 22.9522 122.149 21.3922 122.749 20.1922C123.369 18.9922 124.189 18.1122 125.209 17.5522C126.249 16.9922 127.399 16.7122 128.659 16.7122ZM128.659 17.3122C127.519 17.3122 126.579 17.9022 125.839 19.0822C125.119 20.2622 124.759 22.1922 124.759 24.8722C124.759 27.5522 125.119 29.4822 125.839 30.6622C126.579 31.8222 127.519 32.4022 128.659 32.4022C129.799 32.4022 130.729 31.8222 131.449 30.6622C132.189 29.4822 132.559 27.5522 132.559 24.8722C132.559 22.1922 132.189 20.2622 131.449 19.0822C130.729 17.9022 129.799 17.3122 128.659 17.3122ZM142.575 12.1522V17.1622H147.015V17.7622H142.575V29.3722C142.575 30.3122 142.745 30.9722 143.085 31.3522C143.425 31.7322 143.895 31.9222 144.495 31.9222C145.095 31.9222 145.615 31.6822 146.055 31.2022C146.495 30.7022 146.875 29.8722 147.195 28.7122L147.795 28.8622C147.595 30.0222 147.195 31.0022 146.595 31.8022C146.015 32.6022 145.115 33.0022 143.895 33.0022C143.215 33.0022 142.655 32.9122 142.215 32.7322C141.775 32.5722 141.385 32.3322 141.045 32.0122C140.605 31.5522 140.295 31.0022 140.115 30.3622C139.955 29.7222 139.875 28.8722 139.875 27.8122V17.7622H136.995V17.1622H139.875V12.5722C140.375 12.5522 140.855 12.5122 141.315 12.4522C141.775 12.3922 142.195 12.2922 142.575 12.1522ZM151.77 9.63215C152.29 9.63215 152.74 9.82215 153.12 10.2022C153.5 10.5822 153.69 11.0322 153.69 11.5522C153.69 12.0722 153.5 12.5222 153.12 12.9022C152.74 13.2822 152.29 13.4722 151.77 13.4722C151.25 13.4722 150.8 13.2822 150.42 12.9022C150.04 12.5222 149.85 12.0722 149.85 11.5522C149.85 11.0322 150.04 10.5822 150.42 10.2022C150.8 9.82215 151.25 9.63215 151.77 9.63215ZM153.33 16.8022V29.7922C153.33 30.6322 153.5 31.2022 153.84 31.5022C154.2 31.8022 154.79 31.9522 155.61 31.9522V32.5822C155.27 32.5622 154.75 32.5422 154.05 32.5222C153.37 32.4822 152.68 32.4622 151.98 32.4622C151.3 32.4622 150.61 32.4822 149.91 32.5222C149.21 32.5422 148.69 32.5622 148.35 32.5822V31.9522C149.17 31.9522 149.75 31.8022 150.09 31.5022C150.45 31.2022 150.63 30.6322 150.63 29.7922V20.4022C150.63 19.5022 150.47 18.8422 150.15 18.4222C149.83 17.9822 149.23 17.7622 148.35 17.7622V17.1322C148.99 17.1922 149.61 17.2222 150.21 17.2222C150.79 17.2222 151.34 17.1922 151.86 17.1322C152.4 17.0522 152.89 16.9422 153.33 16.8022ZM164.639 16.7122C165.279 16.7122 165.899 16.7922 166.499 16.9522C167.099 17.1122 167.639 17.3522 168.119 17.6722C168.579 17.9722 168.929 18.3222 169.169 18.7222C169.409 19.1022 169.529 19.5222 169.529 19.9822C169.529 20.5222 169.379 20.9422 169.079 21.2422C168.779 21.5222 168.399 21.6622 167.939 21.6622C167.499 21.6622 167.109 21.5322 166.769 21.2722C166.449 21.0122 166.289 20.6422 166.289 20.1622C166.289 19.7022 166.409 19.3322 166.649 19.0522C166.909 18.7722 167.209 18.5922 167.549 18.5122C167.349 18.1522 166.989 17.8522 166.469 17.6122C165.969 17.3722 165.429 17.2522 164.849 17.2522C164.349 17.2522 163.849 17.3722 163.349 17.6122C162.849 17.8522 162.389 18.2522 161.969 18.8122C161.549 19.3522 161.209 20.1022 160.949 21.0622C160.689 22.0022 160.559 23.1822 160.559 24.6022C160.559 26.3622 160.759 27.7622 161.159 28.8022C161.559 29.8422 162.079 30.5922 162.719 31.0522C163.379 31.4922 164.099 31.7122 164.879 31.7122C165.399 31.7122 165.929 31.6122 166.469 31.4122C167.009 31.2122 167.519 30.8922 167.999 30.4522C168.479 29.9922 168.889 29.3822 169.229 28.6222L169.799 28.8322C169.599 29.4722 169.269 30.1222 168.809 30.7822C168.349 31.4222 167.749 31.9522 167.009 32.3722C166.269 32.7922 165.359 33.0022 164.279 33.0022C163.039 33.0022 161.919 32.6822 160.919 32.0422C159.919 31.4022 159.119 30.4922 158.519 29.3122C157.939 28.1122 157.649 26.6922 157.649 25.0522C157.649 23.4122 157.939 21.9722 158.519 20.7322C159.119 19.4722 159.949 18.4922 161.009 17.7922C162.069 17.0722 163.279 16.7122 164.639 16.7122ZM186.994 11.1922L194.314 30.0622C194.614 30.8222 194.954 31.3322 195.334 31.5922C195.714 31.8322 196.064 31.9622 196.384 31.9822V32.5822C195.984 32.5422 195.494 32.5222 194.914 32.5222C194.334 32.5022 193.754 32.4922 193.174 32.4922C192.394 32.4922 191.664 32.5022 190.984 32.5222C190.304 32.5222 189.754 32.5422 189.334 32.5822V31.9822C190.354 31.9422 191.004 31.7722 191.284 31.4722C191.564 31.1522 191.504 30.4822 191.104 29.4622L185.524 14.5522L186.004 14.1622L180.784 27.7222C180.464 28.5222 180.274 29.2022 180.214 29.7622C180.154 30.3022 180.204 30.7322 180.364 31.0522C180.544 31.3722 180.834 31.6022 181.234 31.7422C181.654 31.8822 182.174 31.9622 182.794 31.9822V32.5822C182.234 32.5422 181.644 32.5222 181.024 32.5222C180.424 32.5022 179.864 32.4922 179.344 32.4922C178.844 32.4922 178.414 32.5022 178.054 32.5222C177.714 32.5222 177.394 32.5422 177.094 32.5822V31.9822C177.494 31.8822 177.904 31.6522 178.324 31.2922C178.744 30.9122 179.124 30.2722 179.464 29.3722L186.514 11.1922C186.594 11.1922 186.674 11.1922 186.754 11.1922C186.834 11.1922 186.914 11.1922 186.994 11.1922ZM190.654 23.9422V24.5422H181.714L182.014 23.9422H190.654ZM204.525 11.3422V11.9422C203.845 11.9622 203.325 12.0422 202.965 12.1822C202.625 12.3022 202.395 12.5422 202.275 12.9022C202.155 13.2422 202.095 13.7822 202.095 14.5222V29.4022C202.095 30.1222 202.155 30.6622 202.275 31.0222C202.395 31.3822 202.625 31.6222 202.965 31.7422C203.325 31.8622 203.845 31.9422 204.525 31.9822V32.5822C204.065 32.5422 203.485 32.5222 202.785 32.5222C202.105 32.5022 201.415 32.4922 200.715 32.4922C199.935 32.4922 199.205 32.5022 198.525 32.5222C197.845 32.5222 197.295 32.5422 196.875 32.5822V31.9822C197.555 31.9422 198.065 31.8622 198.405 31.7422C198.765 31.6222 199.005 31.3822 199.125 31.0222C199.245 30.6622 199.305 30.1222 199.305 29.4022V14.5222C199.305 13.7822 199.245 13.2422 199.125 12.9022C199.005 12.5422 198.765 12.3022 198.405 12.1822C198.065 12.0422 197.555 11.9622 196.875 11.9422V11.3422C197.295 11.3622 197.845 11.3822 198.525 11.4022C199.205 11.4222 199.935 11.4322 200.715 11.4322C201.415 11.4322 202.105 11.4222 202.785 11.4022C203.485 11.3822 204.065 11.3622 204.525 11.3422Z" fill="white"/>
</svg>
