<svg viewBox="0 0 34 33" fill="none" xmlns="http://www.w3.org/2000/svg">
<path d="M30.5763 2.19037H3.92371C3.3571 2.19037 2.89861 2.64886 2.89861 3.21547V23.7174C2.89861 24.284 3.3571 24.7425 3.92371 24.7425H13.1496V28.8429H10.0743C9.5077 28.8429 9.04921 29.3014 9.04921 29.868C9.04921 30.4346 9.5077 30.8931 10.0743 30.8931H14.1747H20.3253H24.4257C24.9923 30.8931 25.4508 30.4346 25.4508 29.868C25.4508 29.3014 24.9923 28.8429 24.4257 28.8429H21.3504V24.7425H30.5763C31.1429 24.7425 31.6014 24.284 31.6014 23.7174V3.21547C31.6014 2.64886 31.1429 2.19037 30.5763 2.19037ZM19.3002 28.8429H15.1998V24.7425H19.3002V28.8429ZM29.5512 22.6923H20.3253H14.1747H4.94881V4.24057H29.5512V22.6923Z" fill="white"/>
<path d="M8.02407 14.4915H12.1245C12.4468 14.4915 12.7511 14.3394 12.9443 14.0811L14.8974 11.4783L17.315 17.9272C17.4372 18.2536 17.7175 18.4948 18.0578 18.5689C18.1299 18.5839 18.203 18.5919 18.2751 18.5919C18.5443 18.5919 18.8056 18.4858 18.9998 18.2916L22.7999 14.4915H26.4758C27.0425 14.4915 27.5009 14.0331 27.5009 13.4664C27.5009 12.8998 27.0425 12.4413 26.4758 12.4413H22.3755C22.1032 12.4413 21.8429 12.5495 21.6507 12.7417L18.6755 15.7159L16.1598 9.00566C16.0276 8.65529 15.7163 8.40402 15.3449 8.35096C14.9755 8.2979 14.6041 8.45207 14.3799 8.75139L11.6119 12.4413H8.02407C7.45746 12.4413 6.99897 12.8998 6.99897 13.4664C6.99897 14.0331 7.45746 14.4915 8.02407 14.4915Z" fill="white"/>
</svg>
